<svg xmlns="http://www.w3.org/2000/svg" xmlns:xlink="http://www.w3.org/1999/xlink" width="2181" zoomAndPan="magnify" viewBox="0 0 1635.75 1155.749949" height="1541" preserveAspectRatio="xMidYMid meet" version="1.0"><defs><g/><clipPath id="b319687214"><path d="M 109.636719 1012.066406 L 1609.3125 1012.066406 L 1609.3125 1140.4375 L 109.636719 1140.4375 Z M 109.636719 1012.066406 " clip-rule="nonzero"/></clipPath><clipPath id="762bb223e3"><path d="M 673.554688 467.136719 L 830.652344 467.136719 L 830.652344 605 L 673.554688 605 Z M 673.554688 467.136719 " clip-rule="nonzero"/></clipPath><clipPath id="273f61ab90"><path d="M 830.09375 566.800781 C 833.3125 548.050781 801.109375 532.003906 801.109375 532.003906 L 763.886719 545.636719 L 789.914062 503.382812 C 789.914062 503.382812 772.929688 467.136719 751.984375 467.136719 C 731.035156 467.136719 714.050781 503.382812 714.050781 503.382812 L 740.089844 545.640625 L 702.867188 532.007812 C 702.867188 532.007812 670.652344 548.058594 673.878906 566.8125 C 677.113281 585.558594 701.386719 601.925781 714.542969 599.917969 C 723.109375 598.609375 738.570312 583.609375 746.238281 575.671875 L 746.238281 604.539062 L 761.925781 604.539062 L 761.925781 579.917969 C 770.164062 588.042969 782.234375 598.816406 789.421875 599.910156 C 802.582031 601.925781 826.863281 585.558594 830.09375 566.800781 " clip-rule="nonzero"/></clipPath><clipPath id="74e76eb724"><path d="M 459 596.179688 L 659.34375 596.179688 L 659.34375 820.726562 L 459 820.726562 Z M 459 596.179688 " clip-rule="nonzero"/></clipPath><clipPath id="3c192c957d"><path d="M 659.339844 711.113281 L 659.339844 596.179688 L 636.53125 596.179688 C 628.105469 596.179688 590.832031 629.738281 573.0625 646.1875 L 573.0625 602.019531 L 574.683594 601.539062 L 574.683594 596.96875 L 458.949219 631.0625 L 458.949219 635.632812 L 488.042969 653.714844 L 488.042969 812.867188 L 459.453125 812.867188 L 459.453125 820.105469 L 610.679688 820.105469 L 610.679688 812.863281 L 573.070312 812.863281 L 573.070312 656.25 C 623.695312 662.121094 659.339844 711.113281 659.339844 711.113281 " clip-rule="nonzero"/></clipPath><clipPath id="20af8c6557"><path d="M 711.085938 632.1875 L 796.113281 632.1875 L 796.113281 813.863281 L 711.085938 813.863281 Z M 711.085938 632.1875 " clip-rule="nonzero"/></clipPath><clipPath id="56e7d62e1e"><path d="M 682.335938 812.75 L 820.839844 812.75 L 820.839844 820.640625 L 682.335938 820.640625 Z M 682.335938 812.75 " clip-rule="nonzero"/></clipPath><clipPath id="9407738556"><path d="M 682.496094 820.101562 L 682.496094 812.863281 L 820.542969 812.863281 L 820.542969 820.105469 Z M 682.496094 820.101562 " clip-rule="nonzero"/></clipPath><clipPath id="3b7c3a610f"><path d="M 112.179688 812.273438 L 319.664062 812.273438 L 319.664062 819.847656 L 112.179688 819.847656 Z M 112.179688 812.273438 " clip-rule="nonzero"/></clipPath><clipPath id="2e2125eba6"><path d="M 319.597656 819.835938 L 112.746094 819.835938 L 112.746094 812.589844 L 244.703125 812.589844 Z M 319.597656 819.835938 " clip-rule="nonzero"/></clipPath><clipPath id="c5bb549ab0"><path d="M 209.726562 813.441406 L 317.191406 813.441406 L 317.191406 819.429688 L 209.726562 819.429688 Z M 209.726562 813.441406 " clip-rule="nonzero"/></clipPath><clipPath id="57475c91ec"><path d="M 112.179688 504.230469 L 437.464844 504.230469 L 437.464844 820.105469 L 112.179688 820.105469 Z M 112.179688 504.230469 " clip-rule="nonzero"/></clipPath><clipPath id="27ed8cf00a"><path d="M 418.574219 578.015625 C 418.574219 535.835938 370.132812 506.925781 308.75 504.382812 L 308.738281 504.371094 L 308.613281 504.371094 C 308.585938 504.371094 308.5625 504.359375 308.539062 504.359375 L 308.539062 504.371094 L 249.269531 504.371094 L 249.269531 504.238281 L 151.847656 504.238281 L 151.847656 504.371094 L 112.746094 504.371094 L 112.746094 509.238281 L 151.847656 509.238281 L 151.847656 819.433594 L 249.269531 819.433594 L 249.269531 654.175781 L 273.554688 654.175781 C 273.242188 654.234375 272.90625 654.246094 272.59375 654.304688 C 307.84375 657.84375 335.070312 681.675781 335.070312 735.105469 C 335.070312 790.136719 298.222656 811.191406 261.433594 813.589844 C 273.699219 816.121094 294.722656 820.101562 308.265625 820.101562 C 379.617188 820.101562 437.457031 782.234375 437.457031 735.535156 C 437.457031 690.546875 383.769531 653.878906 316.0625 651.222656 C 315.730469 651.25 315.375 651.246094 315.035156 651.265625 L 315.035156 651.195312 C 315.378906 651.207031 315.722656 651.210938 316.0625 651.222656 C 373.9375 646.757812 418.574219 618.503906 418.574219 578.015625 M 316.136719 579.898438 C 316.136719 623.011719 295.726562 643.933594 268.289062 649.171875 C 268.699219 649.246094 269.15625 649.246094 269.566406 649.304688 L 249.257812 649.304688 L 249.257812 509.242188 L 258.269531 509.242188 C 290.59375 511.0625 316.136719 531.707031 316.136719 579.898438 " clip-rule="nonzero"/></clipPath><clipPath id="f73184cc90"><path d="M 1299.074219 517.265625 L 1404.878906 517.265625 L 1404.878906 621.175781 L 1299.074219 621.175781 Z M 1299.074219 517.265625 " clip-rule="nonzero"/></clipPath><clipPath id="3443a0c4ba"><path d="M 1300.128906 559.542969 C 1304.078125 584.46875 1306.445312 597.222656 1299.140625 621.171875 C 1299.140625 621.171875 1336.949219 614.023438 1363.101562 616.160156 C 1404.023438 619.5 1413.726562 583.375 1396.453125 565.210938 C 1388.765625 557.125 1379.164062 555.644531 1371.398438 556.210938 L 1362.203125 556.675781 L 1362.089844 556.578125 L 1362.078125 556.570312 L 1362.074219 556.566406 L 1361.960938 556.464844 L 1361.835938 547.621094 C 1361.90625 540.140625 1359.734375 531.039062 1350.824219 524.207031 C 1330.8125 508.851562 1293.941406 520.550781 1300.121094 559.550781 " clip-rule="nonzero"/></clipPath><clipPath id="85f5df6338"><path d="M 1298.453125 517.265625 L 1404.878906 517.265625 L 1404.878906 621.78125 L 1298.453125 621.78125 Z M 1298.453125 517.265625 " clip-rule="nonzero"/></clipPath><clipPath id="0df486d69c"><path d="M 1300.257812 559.527344 C 1300.378906 560.265625 1300.496094 561 1300.605469 561.722656 C 1300.71875 562.425781 1300.832031 563.121094 1300.9375 563.804688 C 1304.449219 585.996094 1306.15625 598.640625 1299.261719 621.21875 L 1299.128906 621.179688 L 1299.105469 621.050781 C 1299.105469 621.050781 1327.746094 615.636719 1352.425781 615.636719 C 1356.109375 615.636719 1359.707031 615.757812 1363.105469 616.035156 L 1363.09375 616.171875 L 1363.105469 616.035156 C 1389.78125 618.207031 1403.117188 603.589844 1404.371094 588.175781 C 1405.039062 579.988281 1402.304688 571.578125 1396.347656 565.308594 C 1388.695312 557.265625 1379.144531 555.789062 1371.398438 556.355469 L 1362.203125 556.820312 L 1362.148438 556.820312 L 1362.101562 556.78125 L 1361.992188 556.683594 L 1362.085938 556.582031 L 1361.996094 556.6875 L 1361.984375 556.683594 L 1361.980469 556.675781 L 1361.972656 556.671875 L 1361.96875 556.664062 L 1362.0625 556.566406 L 1361.972656 556.664062 L 1361.863281 556.566406 L 1361.816406 556.527344 L 1361.816406 556.464844 L 1361.691406 547.621094 C 1361.761719 540.167969 1359.601562 531.113281 1350.730469 524.3125 C 1337.488281 514.132812 1316.804688 515.890625 1306.25 529.628906 C 1300.945312 536.546875 1298.195312 546.5 1300.257812 559.527344 L 1300.128906 559.542969 L 1300.257812 559.527344 M 1299.988281 559.566406 C 1297.917969 546.484375 1300.679688 536.445312 1306.035156 529.46875 C 1316.683594 515.601562 1337.542969 513.839844 1350.910156 524.09375 L 1350.824219 524.199219 L 1350.910156 524.09375 C 1359.863281 530.960938 1362.039062 540.105469 1361.972656 547.621094 L 1361.835938 547.621094 L 1361.972656 547.621094 L 1362.097656 556.464844 L 1361.960938 556.464844 L 1362.046875 556.367188 L 1362.15625 556.464844 L 1362.167969 556.472656 L 1362.074219 556.570312 L 1362.15625 556.464844 L 1362.171875 556.472656 L 1362.179688 556.472656 L 1362.183594 556.476562 L 1362.296875 556.578125 L 1362.203125 556.675781 L 1362.195312 556.542969 L 1371.394531 556.070312 L 1371.398438 556.210938 L 1371.386719 556.070312 C 1379.175781 555.503906 1388.820312 556.988281 1396.546875 565.121094 L 1396.445312 565.210938 L 1396.546875 565.121094 C 1402.5625 571.441406 1405.320312 579.929688 1404.644531 588.191406 C 1403.378906 603.769531 1389.890625 618.484375 1363.089844 616.296875 C 1359.695312 616.023438 1356.109375 615.894531 1352.425781 615.894531 C 1327.78125 615.894531 1299.15625 621.3125 1299.15625 621.3125 L 1298.9375 621.355469 L 1299 621.144531 C 1305.867188 598.628906 1304.179688 586.035156 1300.664062 563.855469 C 1300.558594 563.171875 1300.445312 562.476562 1300.332031 561.773438 C 1300.222656 561.050781 1300.101562 560.316406 1299.984375 559.574219 Z M 1299.988281 559.566406 " clip-rule="nonzero"/></clipPath><clipPath id="b466e583f4"><path d="M 846 490.511719 L 1118.625 490.511719 L 1118.625 824 L 846 824 Z M 846 490.511719 " clip-rule="nonzero"/></clipPath><clipPath id="91a4ca9c3e"><path d="M 1094.164062 812.863281 L 1094.164062 498.824219 L 1094.261719 498.792969 L 1094.261719 494.21875 L 1094.164062 494.253906 L 1094.164062 490.515625 L 1026.714844 514.113281 L 978.527344 528.3125 L 978.527344 532.882812 L 1003.90625 548.65625 L 1003.90625 612.15625 C 992.382812 601.597656 976.339844 595.695312 954.269531 595.695312 C 889.386719 595.695312 846.394531 646.753906 846.394531 709.734375 C 846.394531 772.707031 864.445312 823.765625 924.027344 823.765625 C 956.496094 823.765625 984.667969 805.773438 1003.90625 779.484375 L 1003.90625 812.863281 L 1003.523438 812.863281 L 1003.523438 820.101562 L 1003.90625 820.101562 L 1003.90625 820.105469 L 1094.164062 820.105469 L 1094.164062 820.101562 L 1118.59375 820.101562 L 1118.59375 812.863281 Z M 1003.90625 777.453125 C 998.015625 782.570312 991.074219 785.507812 983.007812 785.507812 C 953.34375 785.507812 938.351562 746.847656 938.351562 699.152344 C 938.351562 651.453125 953.863281 612.789062 983.007812 612.789062 C 991.03125 612.789062 997.984375 615.804688 1003.90625 621.054688 Z M 1003.90625 777.453125 " clip-rule="nonzero"/></clipPath><clipPath id="d0f4bfa546"><path d="M 1122 597 L 1361.933594 597 L 1361.933594 934.152344 L 1122 934.152344 Z M 1122 597 " clip-rule="nonzero"/></clipPath><clipPath id="f98d11fc9e"><path d="M 1180.570312 752.183594 C 1198.21875 764.375 1220.414062 771.980469 1244.925781 771.980469 C 1301.617188 771.980469 1347.582031 732.882812 1347.582031 684.652344 C 1347.582031 636.429688 1301.617188 597.335938 1244.925781 597.335938 C 1188.230469 597.335938 1142.265625 636.433594 1142.265625 684.664062 C 1142.265625 709.894531 1155.042969 732.449219 1175.164062 748.398438 C 1162.484375 764.847656 1140.398438 797.632812 1140.398438 821.171875 C 1140.398438 833.230469 1144.410156 844.4375 1153.390625 853.703125 C 1153.953125 853.613281 1154.5625 853.308594 1155.097656 853.308594 C 1155.515625 853.714844 1155.8125 854.726562 1156.097656 855.988281 C 1170.878906 869.328125 1196.960938 878.140625 1239.242188 878.140625 C 1312.234375 878.140625 1314.265625 888.855469 1314.265625 893.242188 C 1314.265625 897.628906 1321.863281 924.164062 1236.199219 924.164062 C 1158.019531 924.164062 1158.992188 869.136719 1156.097656 855.988281 C 1155.234375 855.207031 1154.175781 854.507812 1153.390625 853.703125 C 1140.6875 855.796875 1122.148438 880.644531 1122.148438 893.242188 C 1122.148438 906.394531 1136.34375 934.148438 1222.511719 934.148438 C 1308.683594 934.148438 1360.894531 896.164062 1361.402344 845.03125 C 1361.90625 793.894531 1302.601562 797.308594 1232.140625 797.308594 C 1183.820312 797.308594 1178.894531 769.601562 1180.570312 752.183594 M 1202.511719 609.117188 C 1221.496094 601.050781 1248.03125 628.921875 1270.921875 670.320312 C 1293.816406 711.71875 1306.65625 746.664062 1285.402344 759.035156 C 1270.988281 767.429688 1239.882812 739.238281 1217 697.839844 C 1194.113281 656.441406 1187.089844 615.671875 1202.515625 609.117188 " clip-rule="nonzero"/></clipPath><clipPath id="d6a1be4fef"><path d="M 1390.355469 593.175781 L 1605 593.175781 L 1605 824.644531 L 1390.355469 824.644531 Z M 1390.355469 593.175781 " clip-rule="nonzero"/></clipPath><clipPath id="c1c6ec7d81"><path d="M 1590.832031 780.75 C 1553.179688 780.75 1519.1875 765.527344 1493.742188 741.117188 C 1503.550781 738.554688 1513.402344 734.832031 1522.929688 729.542969 C 1568.652344 704.191406 1589.492188 656.632812 1569.476562 623.335938 C 1549.464844 590.042969 1496.179688 583.59375 1450.460938 608.953125 C 1426.546875 622.210938 1409.675781 641.566406 1401.660156 661.765625 C 1394.535156 676.386719 1390.390625 692.601562 1390.390625 709.808594 C 1390.390625 773.058594 1444.097656 824.335938 1510.34375 824.335938 C 1548.847656 824.335938 1583.015625 806.957031 1604.96875 780.035156 C 1600.320312 780.503906 1595.601562 780.75 1590.832031 780.75 M 1493.148438 740.617188 C 1465.824219 714.125 1448.582031 676.898438 1448.582031 635.371094 C 1448.582031 630.417969 1449.328125 625.671875 1449.8125 620.851562 C 1456.320312 615.402344 1463.691406 612.03125 1471.65625 612.03125 C 1496.710938 612.03125 1517.015625 642.714844 1517.015625 680.5625 C 1517.015625 706.59375 1507.308594 729.011719 1493.152344 740.609375 " clip-rule="nonzero"/></clipPath><clipPath id="1734db4cfd"><path d="M 1390 593.175781 L 1605.28125 593.175781 L 1605.28125 824.644531 L 1390 824.644531 Z M 1390 593.175781 " clip-rule="nonzero"/></clipPath><clipPath id="60cfe93263"><path d="M 1590.832031 780.878906 C 1553.140625 780.878906 1519.109375 765.636719 1493.644531 741.210938 L 1493.46875 741.039062 L 1493.707031 740.976562 C 1503.507812 738.417969 1513.355469 734.699219 1522.867188 729.417969 L 1522.9375 729.535156 L 1522.867188 729.417969 C 1567.835938 704.472656 1588.65625 658.09375 1570.285156 624.980469 C 1569.988281 624.445312 1569.679688 623.917969 1569.367188 623.390625 C 1549.410156 590.183594 1496.21875 583.71875 1450.53125 609.058594 C 1426.640625 622.308594 1409.792969 641.636719 1401.789062 661.800781 L 1401.789062 661.8125 C 1394.664062 676.417969 1390.53125 692.613281 1390.53125 709.800781 L 1390.390625 709.800781 L 1390.53125 709.800781 C 1390.53125 772.96875 1444.167969 824.195312 1510.347656 824.195312 L 1510.347656 824.328125 L 1510.347656 824.195312 C 1548.808594 824.195312 1582.941406 806.832031 1604.867188 779.941406 L 1604.972656 780.03125 L 1604.988281 780.164062 C 1600.332031 780.628906 1595.609375 780.878906 1590.835938 780.878906 L 1590.835938 780.746094 L 1590.835938 780.878906 M 1590.835938 780.613281 C 1595.601562 780.613281 1600.3125 780.363281 1604.960938 779.898438 L 1605.277344 779.867188 L 1605.074219 780.125 C 1583.097656 807.074219 1548.886719 824.472656 1510.34375 824.472656 C 1444.027344 824.472656 1390.253906 773.148438 1390.253906 709.8125 C 1390.253906 692.589844 1394.402344 676.351562 1401.539062 661.703125 L 1401.660156 661.769531 L 1401.539062 661.71875 C 1409.5625 641.492188 1426.457031 622.121094 1450.398438 608.839844 L 1450.464844 608.957031 L 1450.398438 608.839844 C 1496.152344 583.464844 1549.53125 589.878906 1569.59375 623.265625 L 1569.476562 623.335938 L 1569.59375 623.265625 C 1569.917969 623.796875 1570.222656 624.328125 1570.519531 624.863281 C 1588.996094 658.160156 1568.023438 704.683594 1522.996094 729.667969 C 1513.460938 734.953125 1503.601562 738.6875 1493.773438 741.253906 L 1493.746094 741.121094 L 1493.839844 741.019531 C 1519.257812 765.410156 1553.226562 780.621094 1590.835938 780.621094 Z M 1493.050781 740.710938 C 1465.707031 714.195312 1448.449219 676.9375 1448.449219 635.371094 L 1448.585938 635.371094 L 1448.449219 635.371094 C 1448.449219 631.6875 1448.859375 628.128906 1449.269531 624.566406 C 1449.414062 623.328125 1449.558594 622.082031 1449.683594 620.839844 L 1449.6875 620.785156 L 1449.730469 620.746094 C 1456.253906 615.28125 1463.65625 611.890625 1471.65625 611.890625 L 1471.65625 612.03125 L 1471.65625 611.890625 C 1496.828125 611.890625 1517.148438 642.6875 1517.148438 680.5625 L 1517.007812 680.5625 L 1517.148438 680.5625 C 1517.148438 706.625 1507.425781 729.089844 1493.234375 740.714844 L 1493.140625 740.792969 L 1493.050781 740.710938 M 1493.242188 740.515625 L 1493.148438 740.617188 L 1493.058594 740.511719 C 1507.179688 728.945312 1516.875 706.566406 1516.875 680.570312 C 1516.875 642.738281 1496.578125 612.171875 1471.652344 612.171875 C 1463.722656 612.171875 1456.386719 615.523438 1449.894531 620.960938 L 1449.808594 620.855469 L 1449.941406 620.867188 C 1449.820312 622.117188 1449.675781 623.363281 1449.53125 624.601562 C 1449.121094 628.15625 1448.710938 631.707031 1448.710938 635.371094 C 1448.710938 676.863281 1465.9375 714.050781 1493.234375 740.515625 Z M 1493.242188 740.515625 " clip-rule="nonzero"/></clipPath></defs><g fill="#1b238a" fill-opacity="1"><g transform="translate(116.750768, 976.875052)"><g><path d="M 25 0 L 8.203125 0 L 8.203125 -80.40625 L 65.421875 -80.40625 L 65.421875 -66.1875 L 25 -66.1875 L 25 -48.078125 L 60.390625 -48.078125 L 60.390625 -33.8125 L 25 -33.8125 Z M 25 0 "/></g></g></g><g fill="#1b238a" fill-opacity="1"><g transform="translate(195.840331, 976.875052)"><g><path d="M 67.34375 -66.1875 L 24.671875 -66.1875 L 24.671875 -49.28125 L 63.890625 -49.28125 L 63.890625 -35.0625 L 24.671875 -35.0625 L 24.671875 -14.21875 L 69.25 -14.21875 L 69.25 0 L 8.203125 0 L 8.203125 -80.40625 L 67.34375 -80.40625 Z M 67.34375 -66.1875 "/></g></g></g><g fill="#1b238a" fill-opacity="1"><g transform="translate(281.220667, 976.875052)"><g><path d="M 20.78125 -24.78125 C 20.78125 -20.800781 22.25 -17.632812 25.1875 -15.28125 C 28.125 -12.9375 32.328125 -11.765625 37.796875 -11.765625 C 43.265625 -11.765625 47.429688 -12.644531 50.296875 -14.40625 C 53.160156 -16.175781 54.59375 -18.773438 54.59375 -22.203125 C 54.59375 -24.242188 53.851562 -26.015625 52.375 -27.515625 C 50.894531 -29.015625 47.382812 -30.421875 41.84375 -31.734375 L 28.171875 -34.90625 C 19.523438 -36.945312 13.644531 -39.722656 10.53125 -43.234375 C 7.414062 -46.753906 5.859375 -51.617188 5.859375 -57.828125 C 5.859375 -65.078125 8.4375 -71.007812 13.59375 -75.625 C 18.75 -80.238281 26.488281 -82.546875 36.8125 -82.546875 C 47.0625 -82.546875 54.835938 -79.957031 60.140625 -74.78125 C 65.453125 -69.601562 68.125 -63.53125 68.15625 -56.5625 L 52.015625 -56.5625 C 51.648438 -60.5 50.117188 -63.5 47.421875 -65.5625 C 44.722656 -67.625 40.769531 -68.65625 35.5625 -68.65625 C 31.363281 -68.65625 27.976562 -67.785156 25.40625 -66.046875 C 22.832031 -64.316406 21.546875 -61.976562 21.546875 -59.03125 C 21.546875 -56.976562 22.109375 -55.273438 23.234375 -53.921875 C 24.367188 -52.578125 26.195312 -51.597656 28.71875 -50.984375 L 50.21875 -45.671875 C 57.988281 -43.773438 63.347656 -41.050781 66.296875 -37.5 C 69.253906 -33.945312 70.734375 -29.503906 70.734375 -24.171875 C 70.734375 -15.421875 67.695312 -8.847656 61.625 -4.453125 C 55.550781 -0.0546875 48.03125 2.140625 39.0625 2.140625 C 27.457031 2.140625 18.820312 -0.328125 13.15625 -5.265625 C 7.488281 -10.210938 4.65625 -16.71875 4.65625 -24.78125 Z M 20.78125 -24.78125 "/></g></g></g><g fill="#1b238a" fill-opacity="1"><g transform="translate(367.530942, 976.875052)"><g><path d="M 42.71875 0 L 25.921875 0 L 25.921875 -66.1875 L 1.640625 -66.1875 L 1.640625 -80.40625 L 67.0625 -80.40625 L 67.0625 -66.1875 L 42.71875 -66.1875 Z M 42.71875 0 "/></g></g></g><g fill="#1b238a" fill-opacity="1"><g transform="translate(447.441041, 976.875052)"><g><path d="M 25 0 L 8.203125 0 L 8.203125 -80.40625 L 25 -80.40625 Z M 25 0 "/></g></g></g><g fill="#1b238a" fill-opacity="1"><g transform="translate(491.849294, 976.875052)"><g><path d="M 54.484375 -80.40625 L 71.9375 -80.40625 L 44.578125 0 L 28.609375 0 L 1.484375 -80.40625 L 19.53125 -80.40625 L 36.765625 -19.46875 L 36.984375 -19.46875 Z M 54.484375 -80.40625 "/></g></g></g><g fill="#1b238a" fill-opacity="1"><g transform="translate(576.354391, 976.875052)"><g><path d="M 29.15625 -30.46875 L 49.671875 -30.46875 L 39.65625 -62.3125 L 39.4375 -62.3125 Z M 19.09375 0 L 1.375 0 L 30.03125 -80.40625 L 49.453125 -80.40625 L 77.78125 0 L 59.515625 0 L 54.375 -16.578125 L 24.671875 -16.578125 Z M 19.09375 0 "/></g></g></g><g fill="#1b238a" fill-opacity="1"><g transform="translate(666.71263, 976.875052)"><g><path d="M 25 -14.546875 L 64.984375 -14.546875 L 64.984375 0 L 8.203125 0 L 8.203125 -80.40625 L 25 -80.40625 Z M 25 -14.546875 "/></g></g></g><g fill="#cd2e45" fill-opacity="1"><g transform="translate(116.750768, 289.973789)"><g><path d="M 65.078125 -66.03125 C 71.546875 -66.03125 76.34375 -67.257812 79.46875 -69.71875 C 82.601562 -72.1875 84.171875 -76.335938 84.171875 -82.171875 C 84.171875 -86.984375 82.710938 -90.765625 79.796875 -93.515625 C 76.878906 -96.273438 72.585938 -97.65625 66.921875 -97.65625 L 36.1875 -97.65625 L 36.1875 -66.03125 Z M 12.03125 -117.953125 L 71.65625 -117.953125 C 83.789062 -117.953125 93.015625 -114.703125 99.328125 -108.203125 C 105.640625 -101.703125 108.796875 -93.851562 108.796875 -84.65625 C 108.796875 -70.957031 102.726562 -61.59375 90.59375 -56.5625 C 96.207031 -54.425781 100.097656 -51.335938 102.265625 -47.296875 C 104.429688 -43.265625 105.515625 -35.976562 105.515625 -25.4375 C 105.515625 -14.945312 105.898438 -8.78125 106.671875 -6.9375 C 107.453125 -5.09375 108.804688 -3.820312 110.734375 -3.125 L 110.734375 0 L 83.53125 0 C 81.757812 -5.289062 80.875 -12.941406 80.875 -22.953125 C 80.875 -31.347656 80.3125 -36.757812 79.1875 -39.1875 C 78.070312 -41.625 76.21875 -43.390625 73.625 -44.484375 C 71.03125 -45.585938 67.03125 -46.140625 61.625 -46.140625 L 36.1875 -46.140625 L 36.1875 0 L 12.03125 0 Z M 12.03125 -117.953125 "/></g></g></g><g fill="#cd2e45" fill-opacity="1"><g transform="translate(249.934015, 289.973789)"><g><path d="M 98.765625 -97.09375 L 36.1875 -97.09375 L 36.1875 -72.296875 L 93.71875 -72.296875 L 93.71875 -51.4375 L 36.1875 -51.4375 L 36.1875 -20.859375 L 101.578125 -20.859375 L 101.578125 0 L 12.03125 0 L 12.03125 -117.953125 L 98.765625 -117.953125 Z M 98.765625 -97.09375 "/></g></g></g><g fill="#cd2e45" fill-opacity="1"><g transform="translate(375.173485, 289.973789)"><g><path d="M 36.1875 -20.375 L 60.171875 -20.375 C 68.628906 -20.375 75.210938 -23.90625 79.921875 -30.96875 C 84.628906 -38.03125 86.984375 -47.710938 86.984375 -60.015625 C 86.984375 -72.691406 84.816406 -82.132812 80.484375 -88.34375 C 76.148438 -94.550781 69.539062 -97.65625 60.65625 -97.65625 L 36.1875 -97.65625 Z M 12.03125 -117.953125 L 64.109375 -117.953125 C 80.046875 -117.953125 92.023438 -112.773438 100.046875 -102.421875 C 108.078125 -92.066406 112.09375 -78.519531 112.09375 -61.78125 C 112.09375 -43.269531 107.828125 -28.34375 99.296875 -17 C 90.765625 -5.664062 78.710938 0 63.140625 0 L 12.03125 0 Z M 12.03125 -117.953125 "/></g></g></g><g fill="#cd2e45" fill-opacity="1"><g transform="translate(510.924417, 289.973789)"><g/></g></g><g fill="#cd2e45" fill-opacity="1"><g transform="translate(571.490427, 289.973789)"><g><path d="M 30.484375 -36.34375 C 30.484375 -30.519531 32.632812 -25.878906 36.9375 -22.421875 C 41.25 -18.972656 47.414062 -17.25 55.4375 -17.25 C 63.46875 -17.25 69.582031 -18.546875 73.78125 -21.140625 C 77.976562 -23.734375 80.078125 -27.546875 80.078125 -32.578125 C 80.078125 -35.566406 78.992188 -38.160156 76.828125 -40.359375 C 74.660156 -42.554688 69.507812 -44.613281 61.375 -46.53125 L 41.328125 -51.1875 C 28.648438 -54.1875 20.019531 -58.265625 15.4375 -63.421875 C 10.863281 -68.585938 8.578125 -75.71875 8.578125 -84.8125 C 8.578125 -95.457031 12.363281 -104.160156 19.9375 -110.921875 C 27.507812 -117.691406 38.863281 -121.078125 54 -121.078125 C 69.03125 -121.078125 80.4375 -117.28125 88.21875 -109.6875 C 96 -102.09375 99.921875 -93.1875 99.984375 -82.96875 L 76.3125 -82.96875 C 75.769531 -88.738281 73.519531 -93.132812 69.5625 -96.15625 C 65.601562 -99.1875 59.800781 -100.703125 52.15625 -100.703125 C 46 -100.703125 41.035156 -99.429688 37.265625 -96.890625 C 33.492188 -94.347656 31.609375 -90.910156 31.609375 -86.578125 C 31.609375 -83.578125 32.4375 -81.085938 34.09375 -79.109375 C 35.757812 -77.128906 38.4375 -75.6875 42.125 -74.78125 L 73.65625 -67 C 85.050781 -64.21875 92.914062 -60.21875 97.25 -55 C 101.582031 -49.789062 103.75 -43.28125 103.75 -35.46875 C 103.75 -22.625 99.296875 -12.976562 90.390625 -6.53125 C 81.484375 -0.09375 70.453125 3.125 57.296875 3.125 C 40.285156 3.125 27.617188 -0.492188 19.296875 -7.734375 C 10.972656 -14.984375 6.8125 -24.519531 6.8125 -36.34375 Z M 30.484375 -36.34375 "/></g></g></g><g fill="#cd2e45" fill-opacity="1"><g transform="translate(698.093968, 289.973789)"><g><path d="M 98.765625 -97.09375 L 36.1875 -97.09375 L 36.1875 -72.296875 L 93.71875 -72.296875 L 93.71875 -51.4375 L 36.1875 -51.4375 L 36.1875 -20.859375 L 101.578125 -20.859375 L 101.578125 0 L 12.03125 0 L 12.03125 -117.953125 L 98.765625 -117.953125 Z M 98.765625 -97.09375 "/></g></g></g><g fill="#cd2e45" fill-opacity="1"><g transform="translate(823.333438, 289.973789)"><g><path d="M 42.765625 -44.6875 L 72.859375 -44.6875 L 58.171875 -91.390625 L 57.859375 -91.390625 Z M 28 0 L 2 0 L 44.046875 -117.953125 L 72.53125 -117.953125 L 114.09375 0 L 87.296875 0 L 79.75 -24.3125 L 36.1875 -24.3125 Z M 28 0 "/></g></g></g><g fill="#1b238a" fill-opacity="1"><g transform="translate(116.750768, 433.151222)"><g><path d="M 29.1875 0 L 9.578125 0 L 9.578125 -93.890625 L 29.1875 -93.890625 Z M 29.1875 0 "/></g></g></g><g fill="#1b238a" fill-opacity="1"><g transform="translate(181.68402, 433.151222)"><g><path d="M 67.828125 -93.890625 L 86.09375 -93.890625 L 86.09375 0 L 66.484375 0 L 28.171875 -67 L 27.90625 -67 L 27.90625 0 L 9.578125 0 L 9.578125 -93.890625 L 30.28125 -93.890625 L 67.578125 -28.484375 L 67.828125 -28.484375 Z M 67.828125 -93.890625 "/></g></g></g><g fill="#1b238a" fill-opacity="1"><g transform="translate(303.528039, 433.151222)"><g><path d="M 49.890625 0 L 30.28125 0 L 30.28125 -77.28125 L 1.921875 -77.28125 L 1.921875 -93.890625 L 78.3125 -93.890625 L 78.3125 -77.28125 L 49.890625 -77.28125 Z M 49.890625 0 "/></g></g></g><g fill="#1b238a" fill-opacity="1"><g transform="translate(409.914812, 433.151222)"><g><path d="M 78.625 -77.28125 L 28.8125 -77.28125 L 28.8125 -57.546875 L 74.609375 -57.546875 L 74.609375 -40.9375 L 28.8125 -40.9375 L 28.8125 -16.609375 L 80.859375 -16.609375 L 80.859375 0 L 9.578125 0 L 9.578125 -93.890625 L 78.625 -93.890625 Z M 78.625 -77.28125 "/></g></g></g><g fill="#1b238a" fill-opacity="1"><g transform="translate(522.688878, 433.151222)"><g><path d="M 51.796875 -52.5625 C 56.953125 -52.5625 60.773438 -53.539062 63.265625 -55.5 C 65.753906 -57.457031 67 -60.757812 67 -65.40625 C 67 -69.238281 65.835938 -72.25 63.515625 -74.4375 C 61.203125 -76.632812 57.785156 -77.734375 53.265625 -77.734375 L 28.8125 -77.734375 L 28.8125 -52.5625 Z M 9.578125 -93.890625 L 57.03125 -93.890625 C 66.695312 -93.890625 74.039062 -91.300781 79.0625 -86.125 C 84.09375 -80.957031 86.609375 -74.710938 86.609375 -67.390625 C 86.609375 -56.484375 81.773438 -49.03125 72.109375 -45.03125 C 76.578125 -43.320312 79.675781 -40.859375 81.40625 -37.640625 C 83.132812 -34.429688 84 -28.632812 84 -20.25 C 84 -11.90625 84.304688 -7 84.921875 -5.53125 C 85.535156 -4.0625 86.609375 -3.046875 88.140625 -2.484375 L 88.140625 0 L 66.484375 0 C 65.085938 -4.21875 64.390625 -10.304688 64.390625 -18.265625 C 64.390625 -24.953125 63.941406 -29.265625 63.046875 -31.203125 C 62.148438 -33.140625 60.664062 -34.546875 58.59375 -35.421875 C 56.53125 -36.296875 53.351562 -36.734375 49.0625 -36.734375 L 28.8125 -36.734375 L 28.8125 0 L 9.578125 0 Z M 9.578125 -93.890625 "/></g></g></g><g fill="#1b238a" fill-opacity="1"><g transform="translate(641.786362, 433.151222)"><g><path d="M 67.828125 -93.890625 L 86.09375 -93.890625 L 86.09375 0 L 66.484375 0 L 28.171875 -67 L 27.90625 -67 L 27.90625 0 L 9.578125 0 L 9.578125 -93.890625 L 30.28125 -93.890625 L 67.578125 -28.484375 L 67.828125 -28.484375 Z M 67.828125 -93.890625 "/></g></g></g><g fill="#1b238a" fill-opacity="1"><g transform="translate(763.630382, 433.151222)"><g><path d="M 34.046875 -35.578125 L 58 -35.578125 L 46.3125 -72.75 L 46.046875 -72.75 Z M 22.296875 0 L 1.59375 0 L 35.0625 -93.890625 L 57.734375 -93.890625 L 90.828125 0 L 69.5 0 L 63.484375 -19.359375 L 28.8125 -19.359375 Z M 22.296875 0 "/></g></g></g><g fill="#1b238a" fill-opacity="1"><g transform="translate(882.216882, 433.151222)"><g><path d="M 49.890625 0 L 30.28125 0 L 30.28125 -77.28125 L 1.921875 -77.28125 L 1.921875 -93.890625 L 78.3125 -93.890625 L 78.3125 -77.28125 L 49.890625 -77.28125 Z M 49.890625 0 "/></g></g></g><g fill="#1b238a" fill-opacity="1"><g transform="translate(988.603655, 433.151222)"><g><path d="M 29.1875 0 L 9.578125 0 L 9.578125 -93.890625 L 29.1875 -93.890625 Z M 29.1875 0 "/></g></g></g><g fill="#1b238a" fill-opacity="1"><g transform="translate(1053.536903, 433.151222)"><g><path d="M 25.03125 -46.953125 C 25.03125 -36.046875 27.457031 -27.84375 32.3125 -22.34375 C 37.164062 -16.851562 43.320312 -14.109375 50.78125 -14.109375 C 58.226562 -14.109375 64.304688 -16.941406 69.015625 -22.609375 C 73.722656 -28.273438 76.078125 -36.390625 76.078125 -46.953125 C 76.078125 -57.503906 73.742188 -65.613281 69.078125 -71.28125 C 64.410156 -76.945312 58.226562 -79.78125 50.53125 -79.78125 C 42.820312 -79.78125 36.644531 -76.957031 32 -71.3125 C 27.351562 -65.664062 25.03125 -57.546875 25.03125 -46.953125 Z M 5.421875 -46.953125 C 5.421875 -63.046875 9.613281 -75.304688 18 -83.734375 C 26.394531 -92.171875 37.191406 -96.390625 50.390625 -96.390625 C 63.597656 -96.390625 74.445312 -92.222656 82.9375 -83.890625 C 91.4375 -75.566406 95.6875 -63.253906 95.6875 -46.953125 C 95.6875 -31.023438 91.507812 -18.800781 83.15625 -10.28125 C 74.8125 -1.769531 63.957031 2.484375 50.59375 2.484375 C 37.851562 2.484375 27.140625 -1.546875 18.453125 -9.609375 C 9.765625 -17.679688 5.421875 -30.128906 5.421875 -46.953125 Z M 5.421875 -46.953125 "/></g></g></g><g fill="#1b238a" fill-opacity="1"><g transform="translate(1180.810121, 433.151222)"><g><path d="M 67.828125 -93.890625 L 86.09375 -93.890625 L 86.09375 0 L 66.484375 0 L 28.171875 -67 L 27.90625 -67 L 27.90625 0 L 9.578125 0 L 9.578125 -93.890625 L 30.28125 -93.890625 L 67.578125 -28.484375 L 67.828125 -28.484375 Z M 67.828125 -93.890625 "/></g></g></g><g fill="#1b238a" fill-opacity="1"><g transform="translate(1302.65408, 433.151222)"><g><path d="M 34.046875 -35.578125 L 58 -35.578125 L 46.3125 -72.75 L 46.046875 -72.75 Z M 22.296875 0 L 1.59375 0 L 35.0625 -93.890625 L 57.734375 -93.890625 L 90.828125 0 L 69.5 0 L 63.484375 -19.359375 L 28.8125 -19.359375 Z M 22.296875 0 "/></g></g></g><g fill="#1b238a" fill-opacity="1"><g transform="translate(1421.240644, 433.151222)"><g><path d="M 29.1875 -16.984375 L 75.875 -16.984375 L 75.875 0 L 9.578125 0 L 9.578125 -93.890625 L 29.1875 -93.890625 Z M 29.1875 -16.984375 "/></g></g></g><g clip-path="url(#b319687214)"><path fill="#cf2d4f" d="M 109.636719 1012.066406 L 1609.484375 1012.066406 L 1609.484375 1140.4375 L 109.636719 1140.4375 Z M 109.636719 1012.066406 " fill-opacity="1" fill-rule="nonzero"/></g><g fill="#ffffff" fill-opacity="1"><g transform="translate(114.756997, 1107.745229)"><g><path d="M 3.84375 0 L 3.84375 -53.8125 C 5.21875 -54.09375 7.796875 -54.398438 11.578125 -54.734375 C 15.359375 -55.078125 18.753906 -55.25 21.765625 -55.25 C 24.773438 -55.25 27.285156 -55.070312 29.296875 -54.71875 C 31.304688 -54.363281 33 -53.789062 34.375 -53 C 35.75 -52.21875 36.878906 -51.320312 37.765625 -50.3125 C 38.648438 -49.300781 39.332031 -48.023438 39.8125 -46.484375 C 40.6875 -43.835938 41.125 -40.332031 41.125 -35.96875 L 41.125 0 Z M 26.578125 -10.59375 L 26.578125 -36.015625 C 26.578125 -39.273438 26.195312 -41.515625 25.4375 -42.734375 C 24.675781 -43.960938 23.28125 -44.578125 21.25 -44.578125 C 20.832031 -44.578125 19.863281 -44.460938 18.34375 -44.234375 L 18.34375 -10.59375 Z M 26.578125 -10.59375 "/></g></g></g><g fill="#ffffff" fill-opacity="1"><g transform="translate(169.437675, 1107.745229)"><g><path d="M 18.296875 0 L 3.84375 0 L 3.84375 -54.40625 L 18.296875 -54.40625 Z M 18.296875 0 "/></g></g></g><g fill="#ffffff" fill-opacity="1"><g transform="translate(201.513198, 1107.745229)"><g><path d="M 37.453125 -54.40625 L 37.453125 -44.796875 C 33.285156 -43.273438 31.203125 -39.742188 31.203125 -34.203125 L 31.203125 0 L 16.75 0 L 16.75 -34.5 C 16.75 -38.488281 18.296875 -41.59375 21.390625 -43.8125 L 1.140625 -43.8125 L 1.140625 -54.40625 Z M 37.453125 -54.40625 "/></g></g></g><g fill="#ffffff" fill-opacity="1"><g transform="translate(249.656943, 1107.745229)"><g><path d="M 42.984375 -54.40625 L 42.984375 -34.28125 C 42.984375 -29.925781 42.207031 -26.597656 40.65625 -24.296875 C 40.007812 -23.335938 39.101562 -22.378906 37.9375 -21.421875 C 36.769531 -20.460938 35.367188 -19.648438 33.734375 -18.984375 L 42.5625 0 L 26.703125 0 L 17.71875 -23.03125 C 17.6875 -22.6875 17.671875 -21.898438 17.671875 -20.671875 L 17.671875 0 L 3.203125 0 L 3.203125 -19.703125 C 3.203125 -21.578125 3.429688 -23.359375 3.890625 -25.046875 C 4.359375 -26.734375 5.273438 -28.457031 6.640625 -30.21875 C 8.003906 -31.976562 9.785156 -33.429688 11.984375 -34.578125 C 10.910156 -36.804688 9.234375 -40.1875 6.953125 -44.71875 C 4.679688 -49.257812 3.066406 -52.488281 2.109375 -54.40625 L 17.96875 -54.40625 L 26.0625 -35.046875 L 28.21875 -29.65625 C 28.414062 -30.46875 28.515625 -31.828125 28.515625 -33.734375 L 28.515625 -54.40625 Z M 42.984375 -54.40625 "/></g></g></g><g fill="#ffffff" fill-opacity="1"><g transform="translate(304.675006, 1107.745229)"><g><path d="M 11.90625 -54.640625 C 15.46875 -55.046875 18.753906 -55.25 21.765625 -55.25 C 24.773438 -55.25 27.285156 -55.070312 29.296875 -54.71875 C 31.304688 -54.363281 33 -53.789062 34.375 -53 C 35.75 -52.21875 36.878906 -51.320312 37.765625 -50.3125 C 38.648438 -49.300781 39.332031 -48.023438 39.8125 -46.484375 C 40.6875 -43.835938 41.125 -40.332031 41.125 -35.96875 L 41.125 0 L 26.578125 0 L 26.578125 -36.015625 C 26.578125 -39.253906 26.023438 -41.488281 24.921875 -42.71875 C 23.828125 -43.957031 21.898438 -44.578125 19.140625 -44.578125 C 17.234375 -44.578125 15.003906 -44.425781 12.453125 -44.125 C 9.910156 -43.832031 7.835938 -43.535156 6.234375 -43.234375 L 3.84375 -42.765625 L 3.84375 -53.3125 C 5.664062 -53.789062 8.351562 -54.234375 11.90625 -54.640625 Z M 18.34375 0 L 3.84375 0 L 3.84375 -35.34375 L 18.34375 -35.34375 Z M 18.34375 0 "/></g></g></g><g fill="#ffffff" fill-opacity="1"><g transform="translate(359.355678, 1107.745229)"><g/></g></g><g fill="#ffffff" fill-opacity="1"><g transform="translate(389.870765, 1107.745229)"><g><path d="M 3.84375 0 L 3.84375 -53.8125 C 5.21875 -54.09375 7.796875 -54.398438 11.578125 -54.734375 C 15.359375 -55.078125 18.753906 -55.25 21.765625 -55.25 C 24.773438 -55.25 27.285156 -55.070312 29.296875 -54.71875 C 31.304688 -54.363281 33 -53.789062 34.375 -53 C 35.75 -52.21875 36.878906 -51.320312 37.765625 -50.3125 C 38.648438 -49.300781 39.332031 -48.023438 39.8125 -46.484375 C 40.6875 -43.835938 41.125 -40.332031 41.125 -35.96875 L 41.125 0 Z M 26.578125 -10.59375 L 26.578125 -36.015625 C 26.578125 -39.273438 26.195312 -41.515625 25.4375 -42.734375 C 24.675781 -43.960938 23.28125 -44.578125 21.25 -44.578125 C 20.832031 -44.578125 19.863281 -44.460938 18.34375 -44.234375 L 18.34375 -10.59375 Z M 26.578125 -10.59375 "/></g></g></g><g fill="#ffffff" fill-opacity="1"><g transform="translate(444.551438, 1107.745229)"><g><path d="M 3.84375 -17.84375 L 3.84375 -54.40625 L 18.296875 -54.40625 L 18.296875 -29.265625 L 11.046875 -17.84375 Z M 3.84375 -17.84375 "/></g></g></g><g fill="#ffffff" fill-opacity="1"><g transform="translate(476.626955, 1107.745229)"><g><path d="M 2.53125 -54.0625 C 6.78125 -54.851562 10.582031 -55.25 13.9375 -55.25 C 17.300781 -55.25 19.988281 -55.070312 22 -54.71875 C 24.007812 -54.363281 25.703125 -53.789062 27.078125 -53 C 28.453125 -52.21875 29.582031 -51.320312 30.46875 -50.3125 C 31.351562 -49.300781 32.050781 -48.023438 32.5625 -46.484375 C 33.40625 -43.835938 33.828125 -40.332031 33.828125 -35.96875 L 33.828125 -10.59375 L 39.3125 -10.59375 L 39.3125 0 L 2.53125 0 L 2.53125 -10.59375 L 19.28125 -10.59375 L 19.28125 -36.015625 C 19.28125 -39.273438 18.789062 -41.515625 17.8125 -42.734375 C 16.84375 -43.960938 15.109375 -44.578125 12.609375 -44.578125 C 10.921875 -44.578125 9.234375 -44.484375 7.546875 -44.296875 C 5.859375 -44.117188 4.609375 -43.929688 3.796875 -43.734375 L 2.53125 -43.4375 Z M 2.53125 -54.0625 "/></g></g></g><g fill="#ffffff" fill-opacity="1"><g transform="translate(526.331142, 1107.745229)"><g/></g></g><g fill="#ffffff" fill-opacity="1"><g transform="translate(556.846252, 1107.745229)"><g><path d="M 3.84375 -17.84375 L 3.84375 -54.40625 L 18.296875 -54.40625 L 18.296875 -29.265625 L 11.046875 -17.84375 Z M 3.84375 -17.84375 "/></g></g></g><g fill="#ffffff" fill-opacity="1"><g transform="translate(588.92177, 1107.745229)"><g><path d="M 29.78125 -55.25 C 35.394531 -55.25 39.273438 -53.164062 41.421875 -49 C 42.484375 -46.945312 43.238281 -44.691406 43.6875 -42.234375 C 44.144531 -39.773438 44.375 -36.898438 44.375 -33.609375 L 44.375 0 L 22.609375 0 L 22.609375 -10.59375 L 29.90625 -10.59375 L 29.90625 -33.609375 C 29.90625 -37.691406 29.734375 -40.238281 29.390625 -41.25 C 28.910156 -42.707031 28.335938 -43.609375 27.671875 -43.953125 C 27.191406 -44.171875 26.609375 -44.28125 25.921875 -44.28125 C 25.234375 -44.28125 24.535156 -44.097656 23.828125 -43.734375 C 23.128906 -43.367188 22.539062 -42.929688 22.0625 -42.421875 C 21.070312 -41.390625 20.296875 -40.265625 19.734375 -39.046875 L 16.78125 0 L 2.3125 0 L 5.265625 -35.09375 C 5.359375 -36.1875 5.40625 -37.269531 5.40625 -38.34375 C 5.40625 -43.113281 4.304688 -48.46875 2.109375 -54.40625 L 15.4375 -54.40625 C 16.03125 -53.144531 16.550781 -51.316406 17 -48.921875 L 17.203125 -48.921875 C 21.535156 -53.140625 25.726562 -55.25 29.78125 -55.25 Z M 29.78125 -55.25 "/></g></g></g><g fill="#ffffff" fill-opacity="1"><g transform="translate(646.849847, 1107.745229)"><g><path d="M 18.296875 0 L 3.84375 0 L 3.84375 -54.40625 L 18.296875 -54.40625 Z M 18.296875 0 "/></g></g></g><g fill="#ffffff" fill-opacity="1"><g transform="translate(678.925364, 1107.745229)"><g><path d="M 42.984375 -54.40625 L 42.984375 -34.28125 C 42.984375 -29.925781 42.207031 -26.597656 40.65625 -24.296875 C 40.007812 -23.335938 39.101562 -22.378906 37.9375 -21.421875 C 36.769531 -20.460938 35.367188 -19.648438 33.734375 -18.984375 L 42.5625 0 L 26.703125 0 L 17.71875 -23.03125 C 17.6875 -22.6875 17.671875 -21.898438 17.671875 -20.671875 L 17.671875 0 L 3.203125 0 L 3.203125 -19.703125 C 3.203125 -21.578125 3.429688 -23.359375 3.890625 -25.046875 C 4.359375 -26.734375 5.273438 -28.457031 6.640625 -30.21875 C 8.003906 -31.976562 9.785156 -33.429688 11.984375 -34.578125 C 10.910156 -36.804688 9.234375 -40.1875 6.953125 -44.71875 C 4.679688 -49.257812 3.066406 -52.488281 2.109375 -54.40625 L 17.96875 -54.40625 L 26.0625 -35.046875 L 28.21875 -29.65625 C 28.414062 -30.46875 28.515625 -31.828125 28.515625 -33.734375 L 28.515625 -54.40625 Z M 42.984375 -54.40625 "/></g></g></g><g fill="#ffffff" fill-opacity="1"><g transform="translate(733.943427, 1107.745229)"><g><path d="M 15.6875 -54.40625 L 34.96875 -54.40625 L 34.96875 -46.1875 L 28 -20.875 L 23.875 0 L 9.75 0 L 13.921875 -21.25 L 20.15625 -43.8125 L 1.1875 -43.8125 L 1.1875 -65.28125 L 15.6875 -65.28125 Z M 15.6875 -54.40625 "/></g></g></g><g fill="#ffffff" fill-opacity="1"><g transform="translate(779.641103, 1107.745229)"><g><path d="M 3.796875 -54.28125 C 7.222656 -54.925781 10.003906 -55.25 12.140625 -55.25 C 14.285156 -55.25 16.148438 -55.109375 17.734375 -54.828125 C 19.328125 -54.546875 20.679688 -54.164062 21.796875 -53.6875 C 22.921875 -53.207031 23.882812 -52.566406 24.6875 -51.765625 C 25.488281 -50.960938 26.117188 -50.140625 26.578125 -49.296875 C 27.046875 -48.453125 27.410156 -47.425781 27.671875 -46.21875 C 28.117188 -44.226562 28.34375 -41.695312 28.34375 -38.625 L 28.34375 -15.859375 C 28.34375 -13.296875 28.144531 -10.691406 27.75 -8.046875 C 27.351562 -5.410156 26.960938 -3.40625 26.578125 -2.03125 L 25.984375 0 L 1.390625 0 L 1.390625 -10.59375 L 13.25 -10.59375 C 13.632812 -12.644531 13.828125 -15.484375 13.828125 -19.109375 L 13.828125 -38.625 C 13.828125 -40.207031 13.46875 -41.550781 12.75 -42.65625 C 12.039062 -43.769531 10.851562 -44.328125 9.1875 -44.328125 C 8.0625 -44.328125 6.570312 -44.085938 4.71875 -43.609375 L 3.796875 -43.390625 Z M 3.796875 -54.28125 "/></g></g></g><g fill="#ffffff" fill-opacity="1"><g transform="translate(821.290095, 1107.745229)"><g><path d="M 3.84375 -17.84375 L 3.84375 -54.40625 L 18.296875 -54.40625 L 18.296875 -29.265625 L 11.046875 -17.84375 Z M 3.84375 -17.84375 "/></g></g></g><g fill="#ffffff" fill-opacity="1"><g transform="translate(853.365612, 1107.745229)"><g><path d="M 2.53125 -54.0625 C 6.78125 -54.851562 10.582031 -55.25 13.9375 -55.25 C 17.300781 -55.25 19.988281 -55.070312 22 -54.71875 C 24.007812 -54.363281 25.703125 -53.789062 27.078125 -53 C 28.453125 -52.21875 29.582031 -51.320312 30.46875 -50.3125 C 31.351562 -49.300781 32.050781 -48.023438 32.5625 -46.484375 C 33.40625 -43.835938 33.828125 -40.332031 33.828125 -35.96875 L 33.828125 -10.59375 L 39.3125 -10.59375 L 39.3125 0 L 2.53125 0 L 2.53125 -10.59375 L 19.28125 -10.59375 L 19.28125 -36.015625 C 19.28125 -39.273438 18.789062 -41.515625 17.8125 -42.734375 C 16.84375 -43.960938 15.109375 -44.578125 12.609375 -44.578125 C 10.921875 -44.578125 9.234375 -44.484375 7.546875 -44.296875 C 5.859375 -44.117188 4.609375 -43.929688 3.796875 -43.734375 L 2.53125 -43.4375 Z M 2.53125 -54.0625 "/></g></g></g><g fill="#ffffff" fill-opacity="1"><g transform="translate(903.069776, 1107.745229)"><g><path d="M 11.90625 -54.640625 C 15.46875 -55.046875 18.753906 -55.25 21.765625 -55.25 C 24.773438 -55.25 27.285156 -55.070312 29.296875 -54.71875 C 31.304688 -54.363281 33 -53.789062 34.375 -53 C 35.75 -52.21875 36.878906 -51.320312 37.765625 -50.3125 C 38.648438 -49.300781 39.332031 -48.023438 39.8125 -46.484375 C 40.6875 -43.835938 41.125 -40.332031 41.125 -35.96875 L 41.125 0 L 26.578125 0 L 26.578125 -36.015625 C 26.578125 -39.253906 26.023438 -41.488281 24.921875 -42.71875 C 23.828125 -43.957031 21.898438 -44.578125 19.140625 -44.578125 C 17.234375 -44.578125 15.003906 -44.425781 12.453125 -44.125 C 9.910156 -43.832031 7.835938 -43.535156 6.234375 -43.234375 L 3.84375 -42.765625 L 3.84375 -53.3125 C 5.664062 -53.789062 8.351562 -54.234375 11.90625 -54.640625 Z M 18.34375 0 L 3.84375 0 L 3.84375 -35.34375 L 18.34375 -35.34375 Z M 18.34375 0 "/></g></g></g><g fill="#ffffff" fill-opacity="1"><g transform="translate(957.750448, 1107.745229)"><g/></g></g><g fill="#ffffff" fill-opacity="1"><g transform="translate(988.265513, 1107.745229)"><g><path d="M 18.046875 -61.65625 L 18.5625 -60.640625 C 17.039062 -54.960938 15.765625 -50.632812 14.734375 -47.65625 C 13.710938 -44.675781 12.960938 -42.539062 12.484375 -41.25 L 11.8125 -39.34375 L 1.140625 -39.34375 C 2.578125 -45.957031 3.488281 -50.722656 3.875 -53.640625 C 4.269531 -56.566406 4.539062 -58.632812 4.6875 -59.84375 L 4.890625 -61.65625 Z M 18.046875 -61.65625 "/></g></g></g><g fill="#ffffff" fill-opacity="1"><g transform="translate(1017.220215, 1107.745229)"><g><path d="M 12.984375 -44.328125 C 10.515625 -44.328125 8.363281 -44.0625 6.53125 -43.53125 L 6.53125 -54.15625 C 9.851562 -54.882812 12.707031 -55.25 15.09375 -55.25 C 17.488281 -55.25 19.554688 -55.070312 21.296875 -54.71875 C 23.035156 -54.363281 24.488281 -53.820312 25.65625 -53.09375 C 26.820312 -52.363281 27.785156 -51.539062 28.546875 -50.625 C 29.304688 -49.71875 29.882812 -48.585938 30.28125 -47.234375 C 30.988281 -44.867188 31.34375 -42 31.34375 -38.625 L 31.34375 0 L 20.078125 0 L 19.40625 -6.234375 L 18.9375 -6.234375 C 18.175781 -4.523438 16.734375 -2.925781 14.609375 -1.4375 C 12.484375 0.0507812 10.003906 0.796875 7.171875 0.796875 C 5.679688 0.796875 4.019531 0.597656 2.1875 0.203125 L 1.1875 0 L 2.1875 -12.140625 C 4.351562 -11.492188 6.195312 -11.171875 7.71875 -11.171875 C 10.863281 -11.171875 13.164062 -12.035156 14.625 -13.765625 C 16.09375 -15.492188 16.828125 -18.382812 16.828125 -22.4375 L 16.828125 -38.625 C 16.828125 -42.425781 15.546875 -44.328125 12.984375 -44.328125 Z M 12.984375 -44.328125 "/></g></g></g><g fill="#ffffff" fill-opacity="1"><g transform="translate(1062.116567, 1107.745229)"><g><path d="M 37.453125 -54.40625 L 37.453125 -44.796875 C 33.285156 -43.273438 31.203125 -39.742188 31.203125 -34.203125 L 31.203125 0 L 16.75 0 L 16.75 -34.5 C 16.75 -38.488281 18.296875 -41.59375 21.390625 -43.8125 L 1.140625 -43.8125 L 1.140625 -54.40625 Z M 37.453125 -54.40625 "/></g></g></g><g fill="#ffffff" fill-opacity="1"><g transform="translate(1110.260323, 1107.745229)"><g><path d="M 3.84375 -17.84375 L 3.84375 -54.40625 L 18.296875 -54.40625 L 18.296875 -29.265625 L 11.046875 -17.84375 Z M 3.84375 -17.84375 "/></g></g></g><g fill="#ffffff" fill-opacity="1"><g transform="translate(1142.33584, 1107.745229)"><g><path d="M 1.46875 -54.65625 C 6.363281 -55.164062 10.460938 -55.421875 13.765625 -55.421875 C 17.066406 -55.421875 19.84375 -55.140625 22.09375 -54.578125 C 24.34375 -54.015625 26.164062 -53.238281 27.5625 -52.25 C 28.957031 -51.269531 30.039062 -49.941406 30.8125 -48.265625 C 31.582031 -46.597656 32.097656 -44.832031 32.359375 -42.96875 C 32.628906 -41.113281 32.765625 -38.835938 32.765625 -36.140625 L 32.765625 0 L 18.265625 0 L 18.265625 -36.1875 C 18.265625 -39.164062 17.742188 -41.335938 16.703125 -42.703125 C 15.660156 -44.066406 13.898438 -44.75 11.421875 -44.75 C 8.785156 -44.75 5.960938 -44.625 2.953125 -44.375 L 1.46875 -44.234375 Z M 1.46875 -54.65625 "/></g></g></g><g fill="#ffffff" fill-opacity="1"><g transform="translate(1188.666147, 1107.745229)"><g><path d="M 2.53125 -54.0625 C 6.78125 -54.851562 10.582031 -55.25 13.9375 -55.25 C 17.300781 -55.25 19.988281 -55.070312 22 -54.71875 C 24.007812 -54.363281 25.703125 -53.789062 27.078125 -53 C 28.453125 -52.21875 29.582031 -51.320312 30.46875 -50.3125 C 31.351562 -49.300781 32.050781 -48.023438 32.5625 -46.484375 C 33.40625 -43.835938 33.828125 -40.332031 33.828125 -35.96875 L 33.828125 -10.59375 L 39.3125 -10.59375 L 39.3125 0 L 2.53125 0 L 2.53125 -10.59375 L 19.28125 -10.59375 L 19.28125 -36.015625 C 19.28125 -39.273438 18.789062 -41.515625 17.8125 -42.734375 C 16.84375 -43.960938 15.109375 -44.578125 12.609375 -44.578125 C 10.921875 -44.578125 9.234375 -44.484375 7.546875 -44.296875 C 5.859375 -44.117188 4.609375 -43.929688 3.796875 -43.734375 L 2.53125 -43.4375 Z M 2.53125 -54.0625 "/></g></g></g><g fill="#ffffff" fill-opacity="1"><g transform="translate(1238.370356, 1107.745229)"><g><path d="M 11.90625 -54.640625 C 15.46875 -55.046875 18.753906 -55.25 21.765625 -55.25 C 24.773438 -55.25 27.285156 -55.070312 29.296875 -54.71875 C 31.304688 -54.363281 33 -53.789062 34.375 -53 C 35.75 -52.21875 36.878906 -51.320312 37.765625 -50.3125 C 38.648438 -49.300781 39.332031 -48.023438 39.8125 -46.484375 C 40.6875 -43.835938 41.125 -40.332031 41.125 -35.96875 L 41.125 0 L 26.578125 0 L 26.578125 -36.015625 C 26.578125 -39.253906 26.023438 -41.488281 24.921875 -42.71875 C 23.828125 -43.957031 21.898438 -44.578125 19.140625 -44.578125 C 17.234375 -44.578125 15.003906 -44.425781 12.453125 -44.125 C 9.910156 -43.832031 7.835938 -43.535156 6.234375 -43.234375 L 3.84375 -42.765625 L 3.84375 -53.3125 C 5.664062 -53.789062 8.351562 -54.234375 11.90625 -54.640625 Z M 18.34375 0 L 3.84375 0 L 3.84375 -35.34375 L 18.34375 -35.34375 Z M 18.34375 0 "/></g></g></g><g fill="#ffffff" fill-opacity="1"><g transform="translate(1293.051029, 1107.745229)"><g/></g></g><g fill="#ffffff" fill-opacity="1"><g transform="translate(1323.566093, 1107.745229)"><g><path d="M 15.6875 -54.40625 L 34.96875 -54.40625 L 34.96875 -46.1875 L 28 -20.875 L 23.875 0 L 9.75 0 L 13.921875 -21.25 L 20.15625 -43.8125 L 1.1875 -43.8125 L 1.1875 -65.28125 L 15.6875 -65.28125 Z M 15.6875 -54.40625 "/></g></g></g><g fill="#ffffff" fill-opacity="1"><g transform="translate(1369.263724, 1107.745229)"><g><path d="M 2.53125 -54.0625 C 6.78125 -54.851562 10.582031 -55.25 13.9375 -55.25 C 17.300781 -55.25 19.988281 -55.070312 22 -54.71875 C 24.007812 -54.363281 25.703125 -53.789062 27.078125 -53 C 28.453125 -52.21875 29.582031 -51.320312 30.46875 -50.3125 C 31.351562 -49.300781 32.050781 -48.023438 32.5625 -46.484375 C 33.40625 -43.835938 33.828125 -40.332031 33.828125 -35.96875 L 33.828125 -10.59375 L 39.3125 -10.59375 L 39.3125 0 L 2.53125 0 L 2.53125 -10.59375 L 19.28125 -10.59375 L 19.28125 -36.015625 C 19.28125 -39.273438 18.789062 -41.515625 17.8125 -42.734375 C 16.84375 -43.960938 15.109375 -44.578125 12.609375 -44.578125 C 10.921875 -44.578125 9.234375 -44.484375 7.546875 -44.296875 C 5.859375 -44.117188 4.609375 -43.929688 3.796875 -43.734375 L 2.53125 -43.4375 Z M 2.53125 -54.0625 "/></g></g></g><g fill="#ffffff" fill-opacity="1"><g transform="translate(1418.967934, 1107.745229)"><g><path d="M 3.84375 -17.84375 L 3.84375 -54.40625 L 18.296875 -54.40625 L 18.296875 -29.265625 L 11.046875 -17.84375 Z M 3.84375 -17.84375 "/></g></g></g><g fill="#ffffff" fill-opacity="1"><g transform="translate(1451.043451, 1107.745229)"><g><path d="M 21.890625 -54.40625 C 23.691406 -54.96875 25.488281 -55.25 27.28125 -55.25 C 29.082031 -55.25 30.8125 -54.925781 32.46875 -54.28125 C 34.132812 -53.632812 35.519531 -52.796875 36.625 -51.765625 C 37.738281 -50.742188 38.695312 -49.4375 39.5 -47.84375 C 40.300781 -46.257812 40.914062 -44.707031 41.34375 -43.1875 C 41.78125 -41.664062 42.113281 -39.894531 42.34375 -37.875 C 42.738281 -34.613281 42.9375 -31.179688 42.9375 -27.578125 C 42.9375 -23.984375 42.675781 -20.78125 42.15625 -17.96875 C 41.632812 -15.15625 40.960938 -12.804688 40.140625 -10.921875 C 39.328125 -9.035156 38.335938 -7.363281 37.171875 -5.90625 C 36.003906 -4.445312 34.835938 -3.304688 33.671875 -2.484375 C 32.503906 -1.671875 31.253906 -1.003906 29.921875 -0.484375 C 28.585938 0.0351562 27.398438 0.378906 26.359375 0.546875 C 25.316406 0.710938 24.289062 0.796875 23.28125 0.796875 C 22.269531 0.796875 21.25 0.710938 20.21875 0.546875 C 19.195312 0.378906 18.015625 0.0351562 16.671875 -0.484375 C 15.335938 -1.003906 14.085938 -1.671875 12.921875 -2.484375 C 11.753906 -3.304688 10.585938 -4.445312 9.421875 -5.90625 C 8.253906 -7.363281 7.253906 -9.035156 6.421875 -10.921875 C 5.597656 -12.804688 4.925781 -15.15625 4.40625 -17.96875 C 3.882812 -20.78125 3.625 -23.875 3.625 -27.25 L 3.625 -54.40625 L 18.34375 -54.40625 L 18.34375 -27.25 C 18.34375 -15.664062 19.988281 -9.875 23.28125 -9.875 C 26.570312 -9.875 28.21875 -15.664062 28.21875 -27.25 C 28.21875 -34.613281 27.960938 -39.25 27.453125 -41.15625 C 27.003906 -42.90625 26.289062 -43.945312 25.3125 -44.28125 C 24.832031 -44.476562 24.222656 -44.578125 23.484375 -44.578125 L 21.890625 -44.234375 Z M 21.890625 -54.40625 "/></g></g></g><g fill="#ffffff" fill-opacity="1"><g transform="translate(1506.609796, 1107.745229)"><g><path d="M 22.1875 -55.25 C 24.375 -55.25 26.347656 -54.910156 28.109375 -54.234375 C 29.867188 -53.554688 31.320312 -52.8125 32.46875 -52 C 33.625 -51.1875 34.773438 -50.054688 35.921875 -48.609375 C 37.078125 -47.160156 38.066406 -45.492188 38.890625 -43.609375 C 40.710938 -39.335938 41.625 -33.882812 41.625 -27.25 C 41.625 -17.769531 39.726562 -10.65625 35.9375 -5.90625 C 34.78125 -4.445312 33.625 -3.300781 32.46875 -2.46875 C 31.320312 -1.632812 30.085938 -0.953125 28.765625 -0.421875 C 26.597656 0.421875 24.40625 0.84375 22.1875 0.84375 C 19.90625 0.84375 17.640625 0.394531 15.390625 -0.5 C 14.066406 -1.007812 12.828125 -1.6875 11.671875 -2.53125 C 10.523438 -3.375 9.390625 -4.523438 8.265625 -5.984375 C 7.140625 -7.453125 6.1875 -9.140625 5.40625 -11.046875 C 3.601562 -15.265625 2.703125 -20.664062 2.703125 -27.25 C 2.703125 -30.0625 3.164062 -33.0625 4.09375 -36.25 C 5.019531 -39.4375 6.171875 -41.945312 7.546875 -43.78125 L 3.25 -43.484375 L 3.25 -53.859375 C 9.09375 -54.785156 15.40625 -55.25 22.1875 -55.25 Z M 17.25 -27.25 C 17.25 -15.632812 18.882812 -9.828125 22.15625 -9.828125 C 25.4375 -9.828125 27.078125 -15.632812 27.078125 -27.25 C 27.078125 -34 26.597656 -38.632812 25.640625 -41.15625 C 24.765625 -43.4375 23.613281 -44.578125 22.1875 -44.578125 L 20.40625 -44.453125 C 19.175781 -42.679688 18.34375 -40.476562 17.90625 -37.84375 C 17.46875 -35.21875 17.25 -31.6875 17.25 -27.25 Z M 17.25 -27.25 "/></g></g></g><g fill="#ffffff" fill-opacity="1"><g transform="translate(1560.868776, 1107.745229)"><g><path d="M 6.171875 -23.421875 C 5.148438 -24.648438 4.316406 -26.226562 3.671875 -28.15625 C 3.023438 -30.082031 2.703125 -32.445312 2.703125 -35.25 C 2.703125 -38.0625 3.207031 -40.796875 4.21875 -43.453125 C 5.226562 -46.117188 6.597656 -48.296875 8.328125 -49.984375 C 10.054688 -51.671875 12.023438 -52.96875 14.234375 -53.875 C 16.441406 -54.789062 18.753906 -55.25 21.171875 -55.25 C 23.367188 -55.25 25.34375 -54.910156 27.09375 -54.234375 C 28.851562 -53.554688 30.304688 -52.8125 31.453125 -52 C 32.609375 -51.1875 33.765625 -50.054688 34.921875 -48.609375 C 36.078125 -47.160156 37.0625 -45.492188 37.875 -43.609375 C 39.695312 -39.335938 40.609375 -33.882812 40.609375 -27.25 C 40.609375 -17.800781 38.710938 -10.671875 34.921875 -5.859375 C 33.765625 -4.398438 32.609375 -3.253906 31.453125 -2.421875 C 30.304688 -1.597656 29.070312 -0.929688 27.75 -0.421875 C 25.5625 0.421875 23.242188 0.84375 20.796875 0.84375 C 18.347656 0.84375 15.921875 0.722656 13.515625 0.484375 C 11.109375 0.242188 9.382812 0 8.34375 -0.25 L 6.75 -0.625 L 6.75 -11.09375 C 11.382812 -10.25 16.191406 -9.828125 21.171875 -9.828125 C 22.859375 -9.828125 24.09375 -11.222656 24.875 -14.015625 C 25.664062 -16.816406 26.0625 -21.226562 26.0625 -27.25 C 26.0625 -34 25.582031 -38.632812 24.625 -41.15625 C 23.757812 -43.4375 22.609375 -44.578125 21.171875 -44.578125 C 20.242188 -44.578125 19.457031 -44.210938 18.8125 -43.484375 C 18.164062 -42.753906 17.703125 -41.851562 17.421875 -40.78125 C 16.910156 -38.875 16.65625 -37.316406 16.65625 -36.109375 C 16.65625 -33.597656 17.019531 -31.660156 17.75 -30.296875 C 18.488281 -28.929688 19.429688 -28.15625 20.578125 -27.96875 L 21.84375 -27.703125 L 19.984375 -17.453125 L 18.015625 -17.671875 C 14.972656 -17.984375 12.226562 -18.867188 9.78125 -20.328125 C 8.40625 -21.171875 7.203125 -22.203125 6.171875 -23.421875 Z M 6.171875 -23.421875 "/></g></g></g><g clip-path="url(#762bb223e3)"><g clip-path="url(#273f61ab90)"><path fill="#1b248b" d="M 673.554688 467.136719 L 830.316406 467.136719 L 830.316406 604.535156 L 673.554688 604.535156 Z M 673.554688 467.136719 " fill-opacity="1" fill-rule="nonzero"/></g></g><g clip-path="url(#74e76eb724)"><g clip-path="url(#3c192c957d)"><path fill="#1b248b" d="M 459.003906 596.179688 L 659.339844 596.179688 L 659.339844 820.101562 L 459.003906 820.101562 Z M 459.003906 596.179688 " fill-opacity="1" fill-rule="nonzero"/></g></g><g clip-path="url(#20af8c6557)"><path fill="#1b248b" d="M 679.382812 629.074219 L 823.65625 629.074219 L 823.65625 823.453125 L 679.382812 823.453125 Z M 679.382812 629.074219 " fill-opacity="1" fill-rule="nonzero"/></g><g clip-path="url(#56e7d62e1e)"><g clip-path="url(#9407738556)"><path fill="#1b248b" d="M 679.382812 629.074219 L 823.65625 629.074219 L 823.65625 823.453125 L 679.382812 823.453125 Z M 679.382812 629.074219 " fill-opacity="1" fill-rule="nonzero"/></g></g><g clip-path="url(#3b7c3a610f)"><g clip-path="url(#2e2125eba6)"><path fill="#1b248b" d="M 109.691406 501.121094 L 440.570312 501.121094 L 440.570312 823.21875 L 109.691406 823.21875 Z M 109.691406 501.121094 " fill-opacity="1" fill-rule="nonzero"/></g></g><g clip-path="url(#c5bb549ab0)"><path fill="#1b248b" d="M 109.691406 501.121094 L 440.570312 501.121094 L 440.570312 823.21875 L 109.691406 823.21875 Z M 109.691406 501.121094 " fill-opacity="1" fill-rule="nonzero"/></g><g clip-path="url(#57475c91ec)"><g clip-path="url(#27ed8cf00a)"><path fill="#1b248b" d="M 109.691406 501.121094 L 440.570312 501.121094 L 440.570312 823.21875 L 109.691406 823.21875 Z M 109.691406 501.121094 " fill-opacity="1" fill-rule="nonzero"/></g></g><g clip-path="url(#f73184cc90)"><g clip-path="url(#3443a0c4ba)"><path fill="#cf294e" d="M 843.496094 487.398438 L 1608.394531 487.398438 L 1608.394531 937.265625 L 843.496094 937.265625 Z M 843.496094 487.398438 " fill-opacity="1" fill-rule="nonzero"/></g></g><g clip-path="url(#85f5df6338)"><g clip-path="url(#0df486d69c)"><path fill="#cf294e" d="M 843.496094 487.398438 L 1608.394531 487.398438 L 1608.394531 937.265625 L 843.496094 937.265625 Z M 843.496094 487.398438 " fill-opacity="1" fill-rule="nonzero"/></g></g><g clip-path="url(#b466e583f4)"><g clip-path="url(#91a4ca9c3e)"><path fill="#1b238a" d="M 843.496094 487.398438 L 1608.394531 487.398438 L 1608.394531 937.265625 L 843.496094 937.265625 Z M 843.496094 487.398438 " fill-opacity="1" fill-rule="nonzero"/></g></g><g clip-path="url(#d0f4bfa546)"><g clip-path="url(#f98d11fc9e)"><path fill="#1b238a" d="M 843.496094 487.398438 L 1608.394531 487.398438 L 1608.394531 937.265625 L 843.496094 937.265625 Z M 843.496094 487.398438 " fill-opacity="1" fill-rule="nonzero"/></g></g><g clip-path="url(#d6a1be4fef)"><g clip-path="url(#c1c6ec7d81)"><path fill="#1b238a" d="M 843.496094 487.398438 L 1608.394531 487.398438 L 1608.394531 937.265625 L 843.496094 937.265625 Z M 843.496094 487.398438 " fill-opacity="1" fill-rule="nonzero"/></g></g><g clip-path="url(#1734db4cfd)"><g clip-path="url(#60cfe93263)"><path fill="#1b238a" d="M 843.496094 487.398438 L 1608.394531 487.398438 L 1608.394531 937.265625 L 843.496094 937.265625 Z M 843.496094 487.398438 " fill-opacity="1" fill-rule="nonzero"/></g></g></svg>