<svg xmlns="http://www.w3.org/2000/svg" xmlns:xlink="http://www.w3.org/1999/xlink" width="1983" zoomAndPan="magnify" viewBox="0 0 1487.25 676.49998" height="902" preserveAspectRatio="xMidYMid meet" version="1.0"><defs><g/><clipPath id="a96b1af319"><path d="M 571.703125 158.171875 L 716.96875 158.171875 L 716.96875 285.589844 L 571.703125 285.589844 Z M 571.703125 158.171875 " clip-rule="nonzero"/></clipPath><clipPath id="d7d3242945"><path d="M 716.265625 250.238281 C 719.238281 232.917969 689.496094 218.089844 689.496094 218.089844 L 655.121094 230.683594 L 679.164062 191.65625 C 679.164062 191.65625 663.476562 158.171875 644.132812 158.171875 C 624.785156 158.171875 609.101562 191.65625 609.101562 191.65625 L 633.148438 230.691406 L 598.773438 218.09375 C 598.773438 218.09375 569.023438 232.921875 572.003906 250.242188 C 574.984375 267.5625 597.402344 282.683594 609.554688 280.824219 C 617.46875 279.617188 631.742188 265.761719 638.828125 258.429688 L 638.828125 285.09375 L 653.316406 285.09375 L 653.316406 262.347656 C 660.921875 269.859375 672.066406 279.808594 678.707031 280.820312 C 690.859375 282.683594 713.285156 267.5625 716.265625 250.238281 " clip-rule="nonzero"/></clipPath><clipPath id="dc8cb624ec"><path d="M 373 277.375 L 558.574219 277.375 L 558.574219 484.796875 L 373 484.796875 Z M 373 277.375 " clip-rule="nonzero"/></clipPath><clipPath id="62b263eaaa"><path d="M 558.574219 383.539062 L 558.574219 277.375 L 537.507812 277.375 C 529.730469 277.375 495.308594 308.375 478.898438 323.570312 L 478.898438 282.769531 L 480.394531 282.324219 L 480.394531 278.101562 L 373.511719 309.59375 L 373.511719 313.816406 L 400.378906 330.523438 L 400.378906 477.539062 L 373.976562 477.539062 L 373.976562 484.226562 L 513.636719 484.226562 L 513.636719 477.535156 L 478.902344 477.535156 L 478.902344 332.863281 C 525.65625 338.285156 558.574219 383.539062 558.574219 383.539062 " clip-rule="nonzero"/></clipPath><clipPath id="d8ec3b10b9"><path d="M 606.363281 310.636719 L 684.886719 310.636719 L 684.886719 478.453125 L 606.363281 478.453125 Z M 606.363281 310.636719 " clip-rule="nonzero"/></clipPath><clipPath id="a2bf0f7482"><path d="M 579.6875 477.429688 L 707.722656 477.429688 L 707.722656 484.71875 L 579.6875 484.71875 Z M 579.6875 477.429688 " clip-rule="nonzero"/></clipPath><clipPath id="61c38c633b"><path d="M 579.957031 484.21875 L 579.957031 477.535156 L 707.445312 477.535156 L 707.445312 484.226562 Z M 579.957031 484.21875 " clip-rule="nonzero"/></clipPath><clipPath id="ff36dae47a"><path d="M 53.261719 477 L 245 477 L 245 484 L 53.261719 484 Z M 53.261719 477 " clip-rule="nonzero"/></clipPath><clipPath id="cb3fc6bf1e"><path d="M 244.816406 483.972656 L 53.785156 483.972656 L 53.785156 477.28125 L 175.652344 477.28125 Z M 244.816406 483.972656 " clip-rule="nonzero"/></clipPath><clipPath id="cc7420e4b2"><path d="M 143.347656 478.070312 L 242.59375 478.070312 L 242.59375 483.597656 L 143.347656 483.597656 Z M 143.347656 478.070312 " clip-rule="nonzero"/></clipPath><clipPath id="dfb9b6cb0f"><path d="M 53.261719 192.4375 L 353.667969 192.4375 L 353.667969 484.226562 L 53.261719 484.226562 Z M 53.261719 192.4375 " clip-rule="nonzero"/></clipPath><clipPath id="c7a94f7298"><path d="M 336.21875 260.59375 C 336.21875 221.632812 291.488281 194.925781 234.796875 192.574219 L 234.785156 192.5625 L 234.671875 192.5625 C 234.648438 192.5625 234.625 192.554688 234.601562 192.554688 L 234.601562 192.5625 L 179.863281 192.5625 L 179.863281 192.441406 L 89.894531 192.441406 L 89.894531 192.5625 L 53.785156 192.5625 L 53.785156 197.0625 L 89.894531 197.0625 L 89.894531 483.605469 L 179.863281 483.605469 L 179.863281 330.949219 L 202.292969 330.949219 C 202.003906 331 201.695312 331.011719 201.40625 331.070312 C 233.957031 334.335938 259.105469 356.351562 259.105469 405.707031 C 259.105469 456.539062 225.074219 475.988281 191.101562 478.207031 C 202.425781 480.542969 221.847656 484.21875 234.347656 484.21875 C 300.246094 484.21875 353.660156 449.242188 353.660156 406.101562 C 353.660156 364.546875 304.078125 330.671875 241.554688 328.222656 C 241.242188 328.242188 240.914062 328.238281 240.605469 328.261719 L 240.605469 328.191406 C 240.921875 328.203125 241.238281 328.210938 241.554688 328.222656 C 294.996094 324.09375 336.21875 297.996094 336.21875 260.59375 M 241.617188 262.335938 C 241.617188 302.160156 222.773438 321.488281 197.429688 326.328125 C 197.8125 326.390625 198.230469 326.390625 198.609375 326.449219 L 179.859375 326.449219 L 179.859375 197.066406 L 188.179688 197.066406 C 218.03125 198.746094 241.617188 217.816406 241.617188 262.335938 " clip-rule="nonzero"/></clipPath><clipPath id="24adc3b4c3"><path d="M 1149.378906 204.476562 L 1247 204.476562 L 1247 300.464844 L 1149.378906 300.464844 Z M 1149.378906 204.476562 " clip-rule="nonzero"/></clipPath><clipPath id="1e39d86bda"><path d="M 1150.351562 243.53125 C 1154 266.558594 1156.1875 278.335938 1149.4375 300.460938 C 1149.4375 300.460938 1184.359375 293.855469 1208.507812 295.828125 C 1246.300781 298.914062 1255.261719 265.546875 1239.3125 248.765625 C 1232.210938 241.296875 1223.34375 239.929688 1216.175781 240.453125 L 1207.679688 240.882812 L 1207.578125 240.792969 L 1207.566406 240.785156 L 1207.558594 240.78125 L 1207.457031 240.6875 L 1207.339844 232.515625 C 1207.40625 225.605469 1205.402344 217.199219 1197.171875 210.886719 C 1178.691406 196.703125 1144.640625 207.511719 1150.347656 243.535156 " clip-rule="nonzero"/></clipPath><clipPath id="417fbd3e41"><path d="M 1149 204.476562 L 1247 204.476562 L 1247 301 L 1149 301 Z M 1149 204.476562 " clip-rule="nonzero"/></clipPath><clipPath id="a3abbeea34"><path d="M 1150.472656 243.511719 C 1150.582031 244.199219 1150.691406 244.878906 1150.796875 245.542969 C 1150.898438 246.195312 1151.003906 246.832031 1151.101562 247.464844 C 1154.347656 267.96875 1155.917969 279.648438 1149.554688 300.503906 L 1149.433594 300.46875 L 1149.410156 300.347656 C 1149.410156 300.347656 1175.859375 295.347656 1198.652344 295.347656 C 1202.054688 295.347656 1205.375 295.457031 1208.515625 295.714844 L 1208.503906 295.839844 L 1208.515625 295.714844 C 1233.148438 297.722656 1245.460938 284.21875 1246.625 269.976562 C 1247.242188 262.414062 1244.714844 254.648438 1239.214844 248.859375 C 1232.148438 241.425781 1223.324219 240.0625 1216.175781 240.585938 L 1207.679688 241.015625 L 1207.628906 241.015625 L 1207.589844 240.980469 L 1207.484375 240.890625 L 1207.570312 240.796875 L 1207.492188 240.894531 L 1207.480469 240.890625 L 1207.460938 240.871094 L 1207.546875 240.78125 L 1207.46875 240.871094 L 1207.363281 240.78125 L 1207.324219 240.746094 L 1207.324219 240.6875 L 1207.207031 232.515625 C 1207.273438 225.628906 1205.277344 217.269531 1197.085938 210.984375 C 1184.855469 201.582031 1165.75 203.207031 1156.007812 215.898438 C 1151.105469 222.285156 1148.570312 231.480469 1150.472656 243.511719 L 1150.351562 243.53125 L 1150.472656 243.511719 M 1150.226562 243.554688 C 1148.308594 231.464844 1150.859375 222.195312 1155.808594 215.75 C 1165.640625 202.941406 1184.90625 201.3125 1197.25 210.785156 L 1197.171875 210.882812 L 1197.25 210.785156 C 1205.515625 217.128906 1207.53125 225.578125 1207.46875 232.515625 L 1207.339844 232.515625 L 1207.46875 232.515625 L 1207.582031 240.6875 L 1207.457031 240.6875 L 1207.535156 240.597656 L 1207.640625 240.6875 L 1207.644531 240.695312 L 1207.558594 240.785156 L 1207.640625 240.6875 L 1207.652344 240.695312 L 1207.65625 240.695312 L 1207.664062 240.699219 L 1207.765625 240.792969 L 1207.679688 240.882812 L 1207.675781 240.757812 L 1216.167969 240.324219 L 1216.175781 240.453125 L 1216.164062 240.324219 C 1223.355469 239.800781 1232.261719 241.171875 1239.398438 248.679688 L 1239.304688 248.765625 L 1239.398438 248.679688 C 1244.949219 254.519531 1247.5 262.363281 1246.878906 269.992188 C 1245.703125 284.386719 1233.253906 297.976562 1208.496094 295.957031 C 1205.367188 295.703125 1202.054688 295.589844 1198.652344 295.589844 C 1175.890625 295.589844 1149.453125 300.589844 1149.453125 300.589844 L 1149.253906 300.628906 L 1149.3125 300.433594 C 1155.652344 279.636719 1154.09375 268.003906 1150.847656 247.511719 C 1150.75 246.878906 1150.644531 246.242188 1150.542969 245.589844 C 1150.4375 244.921875 1150.328125 244.242188 1150.21875 243.558594 Z M 1150.226562 243.554688 " clip-rule="nonzero"/></clipPath><clipPath id="e89fbf1753"><path d="M 731 179.761719 L 983 179.761719 L 983 487.839844 L 731 487.839844 Z M 731 179.761719 " clip-rule="nonzero"/></clipPath><clipPath id="2e7a7d7fdc"><path d="M 960.140625 477.53125 L 960.140625 187.441406 L 960.230469 187.410156 L 960.230469 183.1875 L 960.140625 183.214844 L 960.140625 179.761719 L 897.851562 201.566406 L 853.347656 214.679688 L 853.347656 218.902344 L 876.785156 233.472656 L 876.785156 292.128906 C 866.144531 282.375 851.328125 276.925781 830.949219 276.925781 C 771.023438 276.925781 731.320312 324.09375 731.320312 382.269531 C 731.320312 440.441406 747.992188 487.609375 803.015625 487.609375 C 833 487.609375 859.023438 470.984375 876.785156 446.703125 L 876.785156 477.53125 L 876.433594 477.53125 L 876.433594 484.21875 L 876.785156 484.21875 L 876.785156 484.226562 L 960.140625 484.226562 L 960.140625 484.21875 L 982.699219 484.21875 L 982.699219 477.53125 Z M 876.785156 444.820312 C 871.347656 449.550781 864.9375 452.265625 857.484375 452.265625 C 830.089844 452.265625 816.246094 416.550781 816.246094 372.492188 C 816.246094 328.433594 830.574219 292.714844 857.484375 292.714844 C 864.898438 292.714844 871.320312 295.5 876.785156 300.351562 Z M 876.785156 444.820312 " clip-rule="nonzero"/></clipPath><clipPath id="69ff25d755"><path d="M 985.570312 278.046875 L 1207 278.046875 L 1207 589.574219 L 985.570312 589.574219 Z M 985.570312 278.046875 " clip-rule="nonzero"/></clipPath><clipPath id="b87f2aea35"><path d="M 1039.9375 421.480469 C 1056.238281 432.742188 1076.734375 439.769531 1099.371094 439.769531 C 1151.726562 439.769531 1194.175781 403.648438 1194.175781 359.101562 C 1194.175781 314.554688 1151.726562 278.441406 1099.371094 278.441406 C 1047.015625 278.441406 1004.566406 314.558594 1004.566406 359.109375 C 1004.566406 382.417969 1016.363281 403.253906 1034.949219 417.984375 C 1023.238281 433.179688 1002.839844 463.464844 1002.839844 485.210938 C 1002.839844 496.347656 1006.546875 506.699219 1014.835938 515.261719 C 1015.355469 515.175781 1015.917969 514.894531 1016.414062 514.894531 C 1016.800781 515.269531 1017.074219 516.207031 1017.335938 517.367188 C 1030.988281 529.695312 1055.074219 537.835938 1094.125 537.835938 C 1161.53125 537.835938 1163.410156 547.734375 1163.410156 551.785156 C 1163.410156 555.835938 1170.429688 580.347656 1091.316406 580.347656 C 1019.113281 580.347656 1020.011719 529.515625 1017.335938 517.367188 C 1016.539062 516.648438 1015.5625 516.003906 1014.835938 515.261719 C 1003.105469 517.195312 985.988281 540.148438 985.988281 551.785156 C 985.988281 563.929688 999.09375 589.570312 1078.671875 589.570312 C 1158.253906 589.570312 1206.472656 554.484375 1206.9375 507.246094 C 1207.40625 460.011719 1152.636719 463.164062 1087.5625 463.164062 C 1042.941406 463.164062 1038.390625 437.570312 1039.9375 421.480469 M 1060.203125 289.328125 C 1077.734375 281.875 1102.242188 307.621094 1123.382812 345.863281 C 1144.523438 384.105469 1156.382812 416.382812 1136.753906 427.8125 C 1123.441406 435.566406 1094.714844 409.523438 1073.582031 371.285156 C 1052.445312 333.042969 1045.960938 295.382812 1060.207031 289.328125 " clip-rule="nonzero"/></clipPath><clipPath id="0cf64a27dd"><path d="M 1233.296875 274.597656 L 1432 274.597656 L 1432 488.414062 L 1233.296875 488.414062 Z M 1233.296875 274.597656 " clip-rule="nonzero"/></clipPath><clipPath id="58e3677409"><path d="M 1418.820312 447.871094 C 1384.050781 447.871094 1352.65625 433.808594 1329.15625 411.257812 C 1338.21875 408.890625 1347.316406 405.453125 1356.113281 400.566406 C 1398.335938 377.148438 1417.585938 333.214844 1399.101562 302.457031 C 1380.621094 271.703125 1331.410156 265.746094 1289.1875 289.171875 C 1267.101562 301.421875 1251.519531 319.300781 1244.121094 337.957031 C 1237.539062 351.464844 1233.710938 366.445312 1233.710938 382.335938 C 1233.710938 440.765625 1283.3125 488.132812 1344.492188 488.132812 C 1380.050781 488.132812 1411.605469 472.078125 1431.878906 447.207031 C 1427.585938 447.640625 1423.230469 447.871094 1418.820312 447.871094 M 1328.609375 410.796875 C 1303.378906 386.324219 1287.449219 351.9375 1287.449219 313.574219 C 1287.449219 309 1288.140625 304.617188 1288.589844 300.164062 C 1294.597656 295.128906 1301.402344 292.015625 1308.761719 292.015625 C 1331.902344 292.015625 1350.652344 320.359375 1350.652344 355.320312 C 1350.652344 379.367188 1341.6875 400.078125 1328.613281 410.792969 " clip-rule="nonzero"/></clipPath><clipPath id="950acc37ab"><path d="M 1233.296875 274.597656 L 1432.167969 274.597656 L 1432.167969 488.414062 L 1233.296875 488.414062 Z M 1233.296875 274.597656 " clip-rule="nonzero"/></clipPath><clipPath id="3671b1598e"><path d="M 1418.820312 447.992188 C 1384.015625 447.992188 1352.585938 433.910156 1329.070312 411.34375 L 1328.910156 411.1875 L 1329.128906 411.128906 C 1338.179688 408.765625 1347.269531 405.332031 1356.054688 400.449219 L 1356.121094 400.558594 L 1356.054688 400.449219 C 1397.582031 377.410156 1416.8125 334.566406 1399.84375 303.976562 C 1399.574219 303.484375 1399.285156 302.992188 1399 302.511719 C 1380.570312 271.835938 1331.445312 265.863281 1289.25 289.269531 C 1267.191406 301.507812 1251.628906 319.363281 1244.238281 337.988281 L 1244.238281 338 C 1237.660156 351.496094 1233.839844 366.457031 1233.839844 382.332031 L 1233.710938 382.332031 L 1233.839844 382.332031 C 1233.839844 440.683594 1283.375 488 1344.496094 488 L 1344.496094 488.125 L 1344.496094 488 C 1380.015625 488 1411.539062 471.964844 1431.785156 447.121094 L 1431.882812 447.203125 L 1431.894531 447.328125 C 1427.597656 447.761719 1423.234375 447.992188 1418.828125 447.992188 L 1418.828125 447.863281 L 1418.828125 447.992188 M 1418.828125 447.742188 C 1423.230469 447.742188 1427.578125 447.515625 1431.871094 447.082031 L 1432.164062 447.054688 L 1431.976562 447.289062 C 1411.679688 472.1875 1380.085938 488.257812 1344.492188 488.257812 C 1283.242188 488.257812 1233.585938 440.84375 1233.585938 382.34375 C 1233.585938 366.433594 1237.417969 351.433594 1244.007812 337.902344 L 1244.121094 337.960938 L 1244.007812 337.914062 C 1251.417969 319.230469 1267.023438 301.335938 1289.128906 289.070312 L 1289.195312 289.179688 L 1289.128906 289.070312 C 1331.382812 265.625 1380.683594 271.554688 1399.210938 302.394531 L 1399.101562 302.457031 L 1399.210938 302.394531 C 1399.503906 302.882812 1399.789062 303.375 1400.0625 303.867188 C 1417.128906 334.628906 1397.757812 377.605469 1356.175781 400.679688 C 1347.367188 405.566406 1338.265625 409.011719 1329.191406 411.382812 L 1329.160156 411.261719 L 1329.246094 411.171875 C 1352.722656 433.699219 1384.089844 447.75 1418.828125 447.75 Z M 1328.523438 410.882812 C 1303.269531 386.386719 1287.328125 351.972656 1287.328125 313.574219 L 1287.457031 313.574219 L 1287.328125 313.574219 C 1287.328125 310.175781 1287.707031 306.882812 1288.089844 303.597656 C 1288.222656 302.453125 1288.351562 301.300781 1288.46875 300.152344 L 1288.472656 300.097656 L 1288.515625 300.066406 C 1294.539062 295.019531 1301.375 291.886719 1308.761719 291.886719 L 1308.761719 292.015625 L 1308.761719 291.886719 C 1332.011719 291.886719 1350.773438 320.335938 1350.773438 355.320312 L 1350.648438 355.320312 L 1350.773438 355.320312 C 1350.773438 379.398438 1341.796875 400.144531 1328.691406 410.890625 L 1328.601562 410.957031 L 1328.523438 410.882812 M 1328.695312 410.703125 L 1328.609375 410.796875 L 1328.527344 410.699219 C 1341.566406 400.011719 1350.519531 379.34375 1350.519531 355.328125 C 1350.519531 320.382812 1331.78125 292.148438 1308.757812 292.148438 C 1301.4375 292.148438 1294.660156 295.242188 1288.664062 300.265625 L 1288.582031 300.167969 L 1288.710938 300.179688 C 1288.59375 301.332031 1288.460938 302.480469 1288.332031 303.625 C 1287.949219 306.914062 1287.570312 310.191406 1287.570312 313.574219 C 1287.570312 351.902344 1303.480469 386.253906 1328.691406 410.703125 Z M 1328.695312 410.703125 " clip-rule="nonzero"/></clipPath></defs><g clip-path="url(#a96b1af319)"><g clip-path="url(#d7d3242945)"><path fill="#1b248b" d="M 716.472656 158.171875 L 716.472656 285.09375 L 571.703125 285.09375 L 571.703125 158.171875 Z M 716.472656 158.171875 " fill-opacity="1" fill-rule="nonzero"/></g></g><g clip-path="url(#dc8cb624ec)"><g clip-path="url(#62b263eaaa)"><path fill="#1b248b" d="M 558.574219 277.375 L 558.574219 484.222656 L 373.5625 484.222656 L 373.5625 277.375 Z M 558.574219 277.375 " fill-opacity="1" fill-rule="nonzero"/></g></g><g clip-path="url(#d8ec3b10b9)"><path fill="#1b248b" d="M 710.324219 307.757812 L 710.324219 487.320312 L 577.085938 487.320312 L 577.085938 307.757812 Z M 710.324219 307.757812 " fill-opacity="1" fill-rule="nonzero"/></g><g clip-path="url(#a2bf0f7482)"><g clip-path="url(#61c38c633b)"><path fill="#1b248b" d="M 710.324219 307.757812 L 710.324219 487.320312 L 577.085938 487.320312 L 577.085938 307.757812 Z M 710.324219 307.757812 " fill-opacity="1" fill-rule="nonzero"/></g></g><g clip-path="url(#ff36dae47a)"><g clip-path="url(#cb3fc6bf1e)"><path fill="#1b248b" d="M 356.539062 189.5625 L 356.539062 487.097656 L 50.964844 487.097656 L 50.964844 189.5625 Z M 356.539062 189.5625 " fill-opacity="1" fill-rule="nonzero"/></g></g><g clip-path="url(#cc7420e4b2)"><path fill="#1b248b" d="M 356.539062 189.5625 L 356.539062 487.097656 L 50.964844 487.097656 L 50.964844 189.5625 Z M 356.539062 189.5625 " fill-opacity="1" fill-rule="nonzero"/></g><g clip-path="url(#dfb9b6cb0f)"><g clip-path="url(#c7a94f7298)"><path fill="#1b248b" d="M 356.539062 189.5625 L 356.539062 487.097656 L 50.964844 487.097656 L 50.964844 189.5625 Z M 356.539062 189.5625 " fill-opacity="1" fill-rule="nonzero"/></g></g><g clip-path="url(#24adc3b4c3)"><g clip-path="url(#1e39d86bda)"><path fill="#cf294e" d="M 1435.042969 176.886719 L 1435.042969 592.449219 L 728.644531 592.449219 L 728.644531 176.886719 Z M 1435.042969 176.886719 " fill-opacity="1" fill-rule="nonzero"/></g></g><g clip-path="url(#417fbd3e41)"><g clip-path="url(#a3abbeea34)"><path fill="#cf294e" d="M 1435.042969 176.886719 L 1435.042969 592.449219 L 728.644531 592.449219 L 728.644531 176.886719 Z M 1435.042969 176.886719 " fill-opacity="1" fill-rule="nonzero"/></g></g><g clip-path="url(#e89fbf1753)"><g clip-path="url(#2e7a7d7fdc)"><path fill="#1b238a" d="M 1435.042969 176.886719 L 1435.042969 592.449219 L 728.644531 592.449219 L 728.644531 176.886719 Z M 1435.042969 176.886719 " fill-opacity="1" fill-rule="nonzero"/></g></g><g clip-path="url(#69ff25d755)"><g clip-path="url(#b87f2aea35)"><path fill="#1b238a" d="M 1435.042969 176.886719 L 1435.042969 592.449219 L 728.644531 592.449219 L 728.644531 176.886719 Z M 1435.042969 176.886719 " fill-opacity="1" fill-rule="nonzero"/></g></g><g clip-path="url(#0cf64a27dd)"><g clip-path="url(#58e3677409)"><path fill="#1b238a" d="M 1435.042969 176.886719 L 1435.042969 592.449219 L 728.644531 592.449219 L 728.644531 176.886719 Z M 1435.042969 176.886719 " fill-opacity="1" fill-rule="nonzero"/></g></g><g clip-path="url(#950acc37ab)"><g clip-path="url(#3671b1598e)"><path fill="#1b238a" d="M 1435.042969 176.886719 L 1435.042969 592.449219 L 728.644531 592.449219 L 728.644531 176.886719 Z M 1435.042969 176.886719 " fill-opacity="1" fill-rule="nonzero"/></g></g><g fill="#1b248b" fill-opacity="1"><g transform="translate(50.914081, 126.033255)"><g><path d="M 28.296875 -28.71875 C 31.109375 -28.71875 33.191406 -29.25 34.546875 -30.3125 C 35.910156 -31.382812 36.59375 -33.191406 36.59375 -35.734375 C 36.59375 -37.816406 35.957031 -39.457031 34.6875 -40.65625 C 33.425781 -41.851562 31.5625 -42.453125 29.09375 -42.453125 L 15.734375 -42.453125 L 15.734375 -28.71875 Z M 5.234375 -51.28125 L 31.15625 -51.28125 C 36.4375 -51.28125 40.445312 -49.867188 43.1875 -47.046875 C 45.9375 -44.222656 47.3125 -40.8125 47.3125 -36.8125 C 47.3125 -30.851562 44.671875 -26.78125 39.390625 -24.59375 C 41.828125 -23.664062 43.515625 -22.320312 44.453125 -20.5625 C 45.398438 -18.8125 45.875 -15.644531 45.875 -11.0625 C 45.875 -6.5 46.039062 -3.816406 46.375 -3.015625 C 46.71875 -2.210938 47.304688 -1.660156 48.140625 -1.359375 L 48.140625 0 L 36.3125 0 C 35.550781 -2.300781 35.171875 -5.628906 35.171875 -9.984375 C 35.171875 -13.628906 34.925781 -15.976562 34.4375 -17.03125 C 33.945312 -18.09375 33.132812 -18.863281 32 -19.34375 C 30.875 -19.820312 29.140625 -20.0625 26.796875 -20.0625 L 15.734375 -20.0625 L 15.734375 0 L 5.234375 0 Z M 5.234375 -51.28125 "/></g></g></g><g fill="#1b248b" fill-opacity="1"><g transform="translate(108.816243, 126.033255)"><g><path d="M 42.953125 -42.21875 L 15.734375 -42.21875 L 15.734375 -31.4375 L 40.75 -31.4375 L 40.75 -22.359375 L 15.734375 -22.359375 L 15.734375 -9.078125 L 44.171875 -9.078125 L 44.171875 0 L 5.234375 0 L 5.234375 -51.28125 L 42.953125 -51.28125 Z M 42.953125 -42.21875 "/></g></g></g><g fill="#1b248b" fill-opacity="1"><g transform="translate(163.264842, 126.033255)"><g><path d="M 15.734375 -8.859375 L 26.171875 -8.859375 C 29.835938 -8.859375 32.691406 -10.394531 34.734375 -13.46875 C 36.785156 -16.539062 37.8125 -20.75 37.8125 -26.09375 C 37.8125 -31.601562 36.867188 -35.707031 34.984375 -38.40625 C 33.109375 -41.101562 30.238281 -42.453125 26.375 -42.453125 L 15.734375 -42.453125 Z M 5.234375 -51.28125 L 27.875 -51.28125 C 34.8125 -51.28125 40.019531 -49.03125 43.5 -44.53125 C 46.988281 -40.03125 48.734375 -34.140625 48.734375 -26.859375 C 48.734375 -18.816406 46.878906 -12.328125 43.171875 -7.390625 C 39.460938 -2.460938 34.222656 0 27.453125 0 L 5.234375 0 Z M 5.234375 -51.28125 "/></g></g></g><g fill="#1b248b" fill-opacity="1"><g transform="translate(222.283305, 126.033255)"><g/></g></g><g fill="#1b248b" fill-opacity="1"><g transform="translate(248.615053, 126.033255)"><g><path d="M 13.265625 -15.8125 C 13.265625 -13.269531 14.195312 -11.25 16.0625 -9.75 C 17.9375 -8.25 20.617188 -7.5 24.109375 -7.5 C 27.597656 -7.5 30.253906 -8.0625 32.078125 -9.1875 C 33.898438 -10.320312 34.8125 -11.984375 34.8125 -14.171875 C 34.8125 -15.472656 34.34375 -16.597656 33.40625 -17.546875 C 32.46875 -18.503906 30.226562 -19.398438 26.6875 -20.234375 L 17.96875 -22.265625 C 12.457031 -23.566406 8.707031 -25.335938 6.71875 -27.578125 C 4.726562 -29.828125 3.734375 -32.925781 3.734375 -36.875 C 3.734375 -41.507812 5.378906 -45.296875 8.671875 -48.234375 C 11.960938 -51.171875 16.898438 -52.640625 23.484375 -52.640625 C 30.015625 -52.640625 34.972656 -50.988281 38.359375 -47.6875 C 41.742188 -44.382812 43.445312 -40.515625 43.46875 -36.078125 L 33.171875 -36.078125 C 32.941406 -38.585938 31.96875 -40.5 30.25 -41.8125 C 28.53125 -43.125 26.003906 -43.78125 22.671875 -43.78125 C 20.003906 -43.78125 17.847656 -43.226562 16.203125 -42.125 C 14.566406 -41.019531 13.75 -39.523438 13.75 -37.640625 C 13.75 -36.335938 14.109375 -35.253906 14.828125 -34.390625 C 15.546875 -33.535156 16.707031 -32.910156 18.3125 -32.515625 L 32.03125 -29.125 C 36.976562 -27.914062 40.394531 -26.175781 42.28125 -23.90625 C 44.164062 -21.644531 45.109375 -18.816406 45.109375 -15.421875 C 45.109375 -9.835938 43.171875 -5.644531 39.296875 -2.84375 C 35.429688 -0.0390625 30.632812 1.359375 24.90625 1.359375 C 17.507812 1.359375 12.003906 -0.210938 8.390625 -3.359375 C 4.773438 -6.515625 2.96875 -10.664062 2.96875 -15.8125 Z M 13.265625 -15.8125 "/></g></g></g><g fill="#1b248b" fill-opacity="1"><g transform="translate(303.656704, 126.033255)"><g><path d="M 42.953125 -42.21875 L 15.734375 -42.21875 L 15.734375 -31.4375 L 40.75 -31.4375 L 40.75 -22.359375 L 15.734375 -22.359375 L 15.734375 -9.078125 L 44.171875 -9.078125 L 44.171875 0 L 5.234375 0 L 5.234375 -51.28125 L 42.953125 -51.28125 Z M 42.953125 -42.21875 "/></g></g></g><g fill="#1b248b" fill-opacity="1"><g transform="translate(358.105303, 126.033255)"><g><path d="M 18.59375 -19.4375 L 31.671875 -19.4375 L 25.296875 -39.734375 L 25.15625 -39.734375 Z M 12.171875 0 L 0.875 0 L 19.15625 -51.28125 L 31.546875 -51.28125 L 49.609375 0 L 37.953125 0 L 34.6875 -10.578125 L 15.734375 -10.578125 Z M 12.171875 0 "/></g></g></g><g fill="#1b248b" fill-opacity="1"><g transform="translate(415.72839, 126.033255)"><g/></g></g><g fill="#1b248b" fill-opacity="1"><g transform="translate(442.060138, 126.033255)"><g><path d="M 15.9375 0 L 5.234375 0 L 5.234375 -51.28125 L 15.9375 -51.28125 Z M 15.9375 0 "/></g></g></g><g fill="#1b248b" fill-opacity="1"><g transform="translate(470.380315, 126.033255)"><g><path d="M 37.046875 -51.28125 L 47.03125 -51.28125 L 47.03125 0 L 36.3125 0 L 15.390625 -36.59375 L 15.25 -36.59375 L 15.25 0 L 5.234375 0 L 5.234375 -51.28125 L 16.53125 -51.28125 L 36.90625 -15.5625 L 37.046875 -15.5625 Z M 37.046875 -51.28125 "/></g></g></g><g fill="#1b248b" fill-opacity="1"><g transform="translate(529.782513, 126.033255)"><g><path d="M 27.25 0 L 16.53125 0 L 16.53125 -42.21875 L 1.046875 -42.21875 L 1.046875 -51.28125 L 42.78125 -51.28125 L 42.78125 -42.21875 L 27.25 -42.21875 Z M 27.25 0 "/></g></g></g><g fill="#1b248b" fill-opacity="1"><g transform="translate(580.742693, 126.033255)"><g><path d="M 42.953125 -42.21875 L 15.734375 -42.21875 L 15.734375 -31.4375 L 40.75 -31.4375 L 40.75 -22.359375 L 15.734375 -22.359375 L 15.734375 -9.078125 L 44.171875 -9.078125 L 44.171875 0 L 5.234375 0 L 5.234375 -51.28125 L 42.953125 -51.28125 Z M 42.953125 -42.21875 "/></g></g></g><g fill="#1b248b" fill-opacity="1"><g transform="translate(635.191291, 126.033255)"><g><path d="M 28.296875 -28.71875 C 31.109375 -28.71875 33.191406 -29.25 34.546875 -30.3125 C 35.910156 -31.382812 36.59375 -33.191406 36.59375 -35.734375 C 36.59375 -37.816406 35.957031 -39.457031 34.6875 -40.65625 C 33.425781 -41.851562 31.5625 -42.453125 29.09375 -42.453125 L 15.734375 -42.453125 L 15.734375 -28.71875 Z M 5.234375 -51.28125 L 31.15625 -51.28125 C 36.4375 -51.28125 40.445312 -49.867188 43.1875 -47.046875 C 45.9375 -44.222656 47.3125 -40.8125 47.3125 -36.8125 C 47.3125 -30.851562 44.671875 -26.78125 39.390625 -24.59375 C 41.828125 -23.664062 43.515625 -22.320312 44.453125 -20.5625 C 45.398438 -18.8125 45.875 -15.644531 45.875 -11.0625 C 45.875 -6.5 46.039062 -3.816406 46.375 -3.015625 C 46.71875 -2.210938 47.304688 -1.660156 48.140625 -1.359375 L 48.140625 0 L 36.3125 0 C 35.550781 -2.300781 35.171875 -5.628906 35.171875 -9.984375 C 35.171875 -13.628906 34.925781 -15.976562 34.4375 -17.03125 C 33.945312 -18.09375 33.132812 -18.863281 32 -19.34375 C 30.875 -19.820312 29.140625 -20.0625 26.796875 -20.0625 L 15.734375 -20.0625 L 15.734375 0 L 5.234375 0 Z M 5.234375 -51.28125 "/></g></g></g><g fill="#1b248b" fill-opacity="1"><g transform="translate(693.093454, 126.033255)"><g><path d="M 37.046875 -51.28125 L 47.03125 -51.28125 L 47.03125 0 L 36.3125 0 L 15.390625 -36.59375 L 15.25 -36.59375 L 15.25 0 L 5.234375 0 L 5.234375 -51.28125 L 16.53125 -51.28125 L 36.90625 -15.5625 L 37.046875 -15.5625 Z M 37.046875 -51.28125 "/></g></g></g><g fill="#1b248b" fill-opacity="1"><g transform="translate(752.495652, 126.033255)"><g><path d="M 18.59375 -19.4375 L 31.671875 -19.4375 L 25.296875 -39.734375 L 25.15625 -39.734375 Z M 12.171875 0 L 0.875 0 L 19.15625 -51.28125 L 31.546875 -51.28125 L 49.609375 0 L 37.953125 0 L 34.6875 -10.578125 L 15.734375 -10.578125 Z M 12.171875 0 "/></g></g></g><g fill="#1b248b" fill-opacity="1"><g transform="translate(810.118738, 126.033255)"><g><path d="M 27.25 0 L 16.53125 0 L 16.53125 -42.21875 L 1.046875 -42.21875 L 1.046875 -51.28125 L 42.78125 -51.28125 L 42.78125 -42.21875 L 27.25 -42.21875 Z M 27.25 0 "/></g></g></g><g fill="#1b248b" fill-opacity="1"><g transform="translate(861.078872, 126.033255)"><g><path d="M 15.9375 0 L 5.234375 0 L 5.234375 -51.28125 L 15.9375 -51.28125 Z M 15.9375 0 "/></g></g></g><g fill="#1b248b" fill-opacity="1"><g transform="translate(889.399095, 126.033255)"><g><path d="M 13.671875 -25.640625 C 13.671875 -19.691406 14.992188 -15.210938 17.640625 -12.203125 C 20.296875 -9.203125 23.660156 -7.703125 27.734375 -7.703125 C 31.804688 -7.703125 35.125 -9.25 37.6875 -12.34375 C 40.257812 -15.4375 41.546875 -19.867188 41.546875 -25.640625 C 41.546875 -31.410156 40.269531 -35.84375 37.71875 -38.9375 C 35.175781 -42.03125 31.800781 -43.578125 27.59375 -43.578125 C 23.382812 -43.578125 20.007812 -42.035156 17.46875 -38.953125 C 14.9375 -35.867188 13.671875 -31.429688 13.671875 -25.640625 Z M 2.96875 -25.640625 C 2.96875 -34.429688 5.257812 -41.128906 9.84375 -45.734375 C 14.425781 -50.335938 20.320312 -52.640625 27.53125 -52.640625 C 34.738281 -52.640625 40.660156 -50.363281 45.296875 -45.8125 C 49.941406 -41.269531 52.265625 -34.546875 52.265625 -25.640625 C 52.265625 -16.941406 49.984375 -10.265625 45.421875 -5.609375 C 40.867188 -0.960938 34.9375 1.359375 27.625 1.359375 C 20.675781 1.359375 14.828125 -0.84375 10.078125 -5.25 C 5.335938 -9.65625 2.96875 -16.453125 2.96875 -25.640625 Z M 2.96875 -25.640625 "/></g></g></g><g fill="#1b248b" fill-opacity="1"><g transform="translate(951.766508, 126.033255)"><g><path d="M 37.046875 -51.28125 L 47.03125 -51.28125 L 47.03125 0 L 36.3125 0 L 15.390625 -36.59375 L 15.25 -36.59375 L 15.25 0 L 5.234375 0 L 5.234375 -51.28125 L 16.53125 -51.28125 L 36.90625 -15.5625 L 37.046875 -15.5625 Z M 37.046875 -51.28125 "/></g></g></g><g fill="#1b248b" fill-opacity="1"><g transform="translate(1011.168706, 126.033255)"><g><path d="M 18.59375 -19.4375 L 31.671875 -19.4375 L 25.296875 -39.734375 L 25.15625 -39.734375 Z M 12.171875 0 L 0.875 0 L 19.15625 -51.28125 L 31.546875 -51.28125 L 49.609375 0 L 37.953125 0 L 34.6875 -10.578125 L 15.734375 -10.578125 Z M 12.171875 0 "/></g></g></g><g fill="#1b248b" fill-opacity="1"><g transform="translate(1068.791793, 126.033255)"><g><path d="M 15.9375 -9.28125 L 41.453125 -9.28125 L 41.453125 0 L 5.234375 0 L 5.234375 -51.28125 L 15.9375 -51.28125 Z M 15.9375 -9.28125 "/></g></g></g><g fill="#1b248b" fill-opacity="1"><g transform="translate(50.914081, 606.848708)"><g><path d="M 15.9375 0 L 5.234375 0 L 5.234375 -51.28125 L 41.734375 -51.28125 L 41.734375 -42.21875 L 15.9375 -42.21875 L 15.9375 -30.671875 L 38.515625 -30.671875 L 38.515625 -21.5625 L 15.9375 -21.5625 Z M 15.9375 0 "/></g></g></g><g fill="#1b248b" fill-opacity="1"><g transform="translate(101.350983, 606.848708)"><g><path d="M 42.953125 -42.21875 L 15.734375 -42.21875 L 15.734375 -31.4375 L 40.75 -31.4375 L 40.75 -22.359375 L 15.734375 -22.359375 L 15.734375 -9.078125 L 44.171875 -9.078125 L 44.171875 0 L 5.234375 0 L 5.234375 -51.28125 L 42.953125 -51.28125 Z M 42.953125 -42.21875 "/></g></g></g><g fill="#1b248b" fill-opacity="1"><g transform="translate(155.799588, 606.848708)"><g><path d="M 13.265625 -15.8125 C 13.265625 -13.269531 14.195312 -11.25 16.0625 -9.75 C 17.9375 -8.25 20.617188 -7.5 24.109375 -7.5 C 27.597656 -7.5 30.253906 -8.0625 32.078125 -9.1875 C 33.898438 -10.320312 34.8125 -11.984375 34.8125 -14.171875 C 34.8125 -15.472656 34.34375 -16.597656 33.40625 -17.546875 C 32.46875 -18.503906 30.226562 -19.398438 26.6875 -20.234375 L 17.96875 -22.265625 C 12.457031 -23.566406 8.707031 -25.335938 6.71875 -27.578125 C 4.726562 -29.828125 3.734375 -32.925781 3.734375 -36.875 C 3.734375 -41.507812 5.378906 -45.296875 8.671875 -48.234375 C 11.960938 -51.171875 16.898438 -52.640625 23.484375 -52.640625 C 30.015625 -52.640625 34.972656 -50.988281 38.359375 -47.6875 C 41.742188 -44.382812 43.445312 -40.515625 43.46875 -36.078125 L 33.171875 -36.078125 C 32.941406 -38.585938 31.96875 -40.5 30.25 -41.8125 C 28.53125 -43.125 26.003906 -43.78125 22.671875 -43.78125 C 20.003906 -43.78125 17.847656 -43.226562 16.203125 -42.125 C 14.566406 -41.019531 13.75 -39.523438 13.75 -37.640625 C 13.75 -36.335938 14.109375 -35.253906 14.828125 -34.390625 C 15.546875 -33.535156 16.707031 -32.910156 18.3125 -32.515625 L 32.03125 -29.125 C 36.976562 -27.914062 40.394531 -26.175781 42.28125 -23.90625 C 44.164062 -21.644531 45.109375 -18.816406 45.109375 -15.421875 C 45.109375 -9.835938 43.171875 -5.644531 39.296875 -2.84375 C 35.429688 -0.0390625 30.632812 1.359375 24.90625 1.359375 C 17.507812 1.359375 12.003906 -0.210938 8.390625 -3.359375 C 4.773438 -6.515625 2.96875 -10.664062 2.96875 -15.8125 Z M 13.265625 -15.8125 "/></g></g></g><g fill="#1b248b" fill-opacity="1"><g transform="translate(210.841239, 606.848708)"><g><path d="M 27.25 0 L 16.53125 0 L 16.53125 -42.21875 L 1.046875 -42.21875 L 1.046875 -51.28125 L 42.78125 -51.28125 L 42.78125 -42.21875 L 27.25 -42.21875 Z M 27.25 0 "/></g></g></g><g fill="#1b248b" fill-opacity="1"><g transform="translate(261.801397, 606.848708)"><g><path d="M 15.9375 0 L 5.234375 0 L 5.234375 -51.28125 L 15.9375 -51.28125 Z M 15.9375 0 "/></g></g></g><g fill="#1b248b" fill-opacity="1"><g transform="translate(290.121573, 606.848708)"><g><path d="M 34.75 -51.28125 L 45.875 -51.28125 L 28.4375 0 L 18.25 0 L 0.9375 -51.28125 L 12.453125 -51.28125 L 23.453125 -12.421875 L 23.578125 -12.421875 Z M 34.75 -51.28125 "/></g></g></g><g fill="#1b248b" fill-opacity="1"><g transform="translate(344.012022, 606.848708)"><g><path d="M 18.59375 -19.4375 L 31.671875 -19.4375 L 25.296875 -39.734375 L 25.15625 -39.734375 Z M 12.171875 0 L 0.875 0 L 19.15625 -51.28125 L 31.546875 -51.28125 L 49.609375 0 L 37.953125 0 L 34.6875 -10.578125 L 15.734375 -10.578125 Z M 12.171875 0 "/></g></g></g><g fill="#1b248b" fill-opacity="1"><g transform="translate(401.635108, 606.848708)"><g><path d="M 15.9375 -9.28125 L 41.453125 -9.28125 L 41.453125 0 L 5.234375 0 L 5.234375 -51.28125 L 15.9375 -51.28125 Z M 15.9375 -9.28125 "/></g></g></g></svg>