<svg xmlns="http://www.w3.org/2000/svg" xmlns:xlink="http://www.w3.org/1999/xlink" width="2045" zoomAndPan="magnify" viewBox="0 0 1533.75 686.249983" height="915" preserveAspectRatio="xMidYMid meet" version="1.0"><defs><g/><clipPath id="3431cf629f"><path d="M 116 188.3125 L 1489.582031 188.3125 L 1489.582031 482.464844 L 116 482.464844 Z M 116 188.3125 " clip-rule="nonzero"/></clipPath><clipPath id="2ae71a9bbc"><path d="M 316.683594 471.707031 L 290.441406 386.167969 L 290.441406 304.933594 C 290.441406 246.152344 258.910156 221.304688 200.175781 221.304688 L 185.976562 221.304688 C 176.589844 214.855469 168.164062 205.296875 163.351562 191.914062 C 162.386719 189.289062 161.667969 189.289062 160.703125 189.289062 C 159.019531 189.289062 156.128906 190.007812 153.003906 190.957031 C 150.355469 191.675781 150.117188 192.394531 149.390625 194.304688 C 141.691406 219.390625 134.226562 260.007812 134.226562 266.21875 C 134.226562 268.847656 135.667969 270.761719 139.519531 271.472656 L 177.308594 276.726562 L 184.050781 277.6875 C 201.378906 280.3125 208.601562 291.308594 208.601562 316.875 C 208.601562 337.898438 207.398438 353.1875 204.75 362.75 C 197.527344 389.277344 173.695312 405.042969 165.03125 408.863281 C 157.570312 411.96875 143.367188 415.792969 135.429688 417.703125 C 129.410156 419.371094 125.320312 422.003906 124.597656 426.539062 L 116.410156 475.292969 C 115.6875 478.160156 116.890625 480.074219 122.429688 480.074219 L 178.757812 480.074219 C 184.296875 480.074219 186.457031 478.164062 189.109375 472.664062 C 195.605469 458.566406 210.535156 418.664062 217.511719 395.726562 C 226.414062 419.855469 237.972656 467.644531 241.101562 479.117188 C 241.820312 481.742188 243.265625 482.460938 244.953125 482.460938 C 247.121094 482.460938 266.140625 481.265625 312.59375 478.160156 C 316.683594 477.917969 318.132812 475.769531 316.683594 471.707031 M 555.328125 221.304688 L 366.613281 221.304688 C 357.222656 214.855469 348.796875 205.296875 343.742188 191.195312 C 343.265625 190 342.539062 189.289062 341.816406 189.289062 C 340.132812 189.289062 338.929688 189.289062 333.867188 190.957031 C 332.1875 191.4375 331.222656 192.394531 330.738281 193.824219 C 318.222656 230.382812 314.851562 255.945312 314.851562 262.636719 C 314.851562 265.742188 316.773438 267.65625 320.382812 268.128906 L 364.191406 274.820312 L 460.730469 274.820312 C 436.898438 298.46875 422.941406 317.585938 422.214844 335.988281 C 420.285156 392.613281 418.84375 461.902344 418.84375 476.242188 C 418.84375 480.308594 420.527344 482.457031 423.660156 482.457031 C 426.789062 482.457031 434.96875 482.214844 496.832031 477.671875 C 499.714844 477.433594 501.164062 475.523438 501.164062 471.699219 L 501.164062 274.824219 L 544.972656 274.824219 C 549.546875 274.824219 552.433594 272.4375 553.398438 267.65625 C 559.175781 238.265625 560.378906 228.230469 560.378906 225.601562 C 560.378906 222.734375 559.417969 221.300781 555.328125 221.300781 M 718.105469 278.402344 C 718.105469 255.945312 704.386719 231.8125 681.519531 227.988281 L 635.785156 220.820312 C 626.394531 214.367188 619.414062 204.570312 612.675781 190.480469 C 611.953125 189.28125 611.234375 188.808594 610.511719 188.808594 C 609.546875 188.808594 608.34375 189.046875 603.289062 190.238281 C 601.359375 190.957031 600.882812 191.195312 600.15625 192.867188 C 592.457031 211.261719 583.785156 255.464844 583.785156 262.15625 C 583.785156 264.785156 585.707031 266.460938 589.324219 267.648438 C 593.898438 268.609375 598.714844 269.796875 604.007812 271.234375 C 613.394531 273.863281 625.671875 276.96875 641.078125 280.792969 C 642.042969 288.199219 642.28125 294.890625 642.28125 302.292969 C 642.28125 327.859375 637.46875 348.171875 629.042969 375.886719 C 627.359375 380.429688 628.5625 382.339844 631.210938 383.058594 L 650.945312 388.550781 C 654.796875 389.746094 657.683594 388.789062 660.335938 386.164062 C 698.125 347.214844 718.105469 309.941406 718.105469 278.402344 M 951.386719 472.664062 L 951.386719 303.976562 C 951.386719 241.140625 916.003906 221.304688 860.160156 221.304688 L 795.652344 221.304688 C 783.855469 213.417969 776.875 200.28125 773.023438 191.914062 C 772.300781 190.238281 771.34375 189.289062 770.378906 189.289062 C 769.414062 189.289062 764.84375 190.007812 761.226562 191.675781 C 759.546875 192.394531 759.0625 193.34375 757.855469 195.980469 C 756.894531 198.84375 743.652344 248.546875 743.652344 263.121094 C 743.652344 265.269531 744.617188 267.421875 749.191406 268.136719 L 793.484375 274.824219 L 835.851562 274.824219 C 855.832031 274.824219 870.027344 286.054688 870.027344 318.789062 L 870.027344 479.59375 C 870.027344 481.503906 870.992188 482.460938 872.675781 482.460938 C 873.398438 482.460938 882.304688 482.222656 947.050781 477.679688 C 949.9375 477.441406 951.386719 475.292969 951.386719 472.664062 M 1224.519531 427.265625 C 1224.519531 424.636719 1224.042969 422.960938 1220.429688 422.960938 L 1196.359375 422.960938 C 1188.414062 412.449219 1185.046875 390.945312 1185.046875 371.589844 L 1185.046875 304.457031 C 1185.046875 244.246094 1158.089844 221.304688 1095.265625 221.304688 L 1041.589844 221.304688 C 1032.199219 214.855469 1023.535156 203.628906 1018.960938 191.195312 C 1018.484375 190 1017.757812 189.289062 1017.03125 189.289062 C 1016.308594 189.289062 1013.183594 189.765625 1009.085938 190.722656 C 1006.441406 191.441406 1005.957031 192.15625 1005.238281 193.832031 C 998.253906 218.917969 991.035156 251.414062 989.828125 262.640625 C 989.351562 265.746094 991.035156 267.664062 994.644531 268.136719 L 1033.636719 274.824219 L 1069.746094 274.824219 C 1092.371094 274.824219 1103.683594 289.636719 1103.683594 319.027344 L 1103.683594 367.535156 C 1103.683594 385.691406 1116.4375 411.257812 1130.886719 424.398438 C 1113.558594 424.398438 1094.054688 424.878906 1075.042969 424.878906 C 1048.085938 424.878906 1009.8125 429.421875 996.574219 430.609375 C 991.757812 431.328125 988.871094 433.957031 987.90625 438.5 C 983.332031 462.628906 981.890625 472.664062 981.890625 474.8125 C 981.890625 478.398438 983.816406 480.066406 987.429688 480.066406 L 1209.59375 480.066406 C 1213.679688 480.066406 1215.847656 478.160156 1216.574219 474.574219 C 1221.148438 450.203125 1224.519531 430.851562 1224.519531 427.265625 M 1489.085938 472.664062 L 1489.085938 304.933594 C 1489.085938 244.964844 1458.757812 221.304688 1399.0625 221.304688 L 1304.222656 221.304688 C 1294.832031 214.855469 1286.648438 206.492188 1281.113281 190.964844 C 1280.636719 189.765625 1279.910156 189.292969 1279.1875 189.292969 C 1278.460938 189.292969 1275.335938 189.773438 1270.761719 190.964844 C 1268.839844 191.683594 1268.839844 191.921875 1268.113281 193.113281 C 1257.761719 225.609375 1252.46875 255.949219 1252.46875 262.640625 C 1252.46875 265.746094 1254.394531 267.664062 1258.007812 268.136719 L 1301.8125 274.824219 L 1373.78125 274.824219 C 1396.164062 274.824219 1407.242188 289.636719 1407.242188 319.027344 L 1407.242188 479.59375 C 1407.242188 481.265625 1408.207031 482.460938 1409.890625 482.460938 C 1412.296875 482.460938 1421.925781 481.984375 1484.265625 478.160156 C 1487.875 477.917969 1489.078125 475.292969 1489.078125 472.664062 M 1335.027344 471.707031 L 1332.621094 325.957031 C 1332.621094 323.332031 1331.417969 321.894531 1329.011719 321.894531 C 1317.214844 321.894531 1302.292969 324.523438 1268.355469 330.253906 C 1262.816406 331.210938 1261.609375 334.320312 1260.894531 340.050781 C 1257.761719 373.976562 1255.113281 433 1255.113281 477.679688 C 1255.113281 480.785156 1256.796875 482.460938 1260.40625 482.460938 C 1262.816406 482.460938 1264.742188 481.984375 1330.453125 478.160156 C 1333.585938 477.917969 1335.027344 475.769531 1335.027344 471.707031 " clip-rule="nonzero"/></clipPath><clipPath id="e320dc5e6d"><path d="M 14.289062 155.339844 L 109.96875 155.339844 L 109.96875 260 L 14.289062 260 Z M 14.289062 155.339844 " clip-rule="nonzero"/></clipPath><clipPath id="56856994c2"><path d="M 69.511719 257.566406 C 45.523438 253.707031 45.488281 252.558594 22.441406 259.710938 C 22.441406 259.710938 17.082031 221.550781 15.03125 195.980469 C 11.824219 155.957031 46.578125 146.46875 64.054688 163.359375 C 71.839844 170.878906 73.261719 180.269531 72.71875 187.859375 L 72.265625 196.851562 L 72.363281 196.957031 L 72.371094 196.96875 L 72.375 196.976562 L 72.472656 197.085938 L 80.984375 197.203125 C 88.183594 197.128906 96.941406 199.257812 103.519531 207.96875 C 118.292969 227.542969 107.039062 263.597656 69.511719 257.5625 " clip-rule="nonzero"/></clipPath><clipPath id="01fe00e572"><path d="M 3.945312 155.339844 L 69.886719 155.339844 L 69.886719 280 L 3.945312 280 Z M 3.945312 155.339844 " clip-rule="nonzero"/></clipPath><clipPath id="2475022a9c"><path d="M 41.621094 155.34375 C -33.746094 172.238281 27.261719 279.90625 27.261719 279.90625 C 27.261719 279.90625 27.261719 254.785156 55.972656 254.785156 C 94.007812 254.785156 41.613281 155.34375 41.613281 155.34375 " clip-rule="nonzero"/></clipPath></defs><g clip-path="url(#3431cf629f)"><g clip-path="url(#2ae71a9bbc)"><path fill="#5962ad" d="M 0.710938 485.695312 L 0.710938 152.109375 L 1492.167969 152.109375 L 1492.167969 485.695312 Z M 0.710938 485.695312 " fill-opacity="1" fill-rule="nonzero"/></g></g><g clip-path="url(#e320dc5e6d)"><g clip-path="url(#56856994c2)"><path fill="#f04a5a" d="M 0.710938 485.695312 L 0.710938 152.109375 L 1492.167969 152.109375 L 1492.167969 485.695312 Z M 0.710938 485.695312 " fill-opacity="1" fill-rule="nonzero"/></g></g><g clip-path="url(#01fe00e572)"><g clip-path="url(#2475022a9c)"><path fill="#f04a5a" d="M 0.710938 485.695312 L 0.710938 152.109375 L 1492.167969 152.109375 L 1492.167969 485.695312 Z M 0.710938 485.695312 " fill-opacity="1" fill-rule="nonzero"/></g></g><g fill="#5962ad" fill-opacity="1"><g transform="translate(1142.038592, 144.765665)"><g><path d="M 13.25 0 L 18.984375 -26.71875 L 27.3125 -54.671875 L 1.5 -54.671875 L 1.5 -83.15625 L 19.6875 -83.15625 L 19.6875 -69.046875 L 45.765625 -69.046875 L 45.765625 -57.78125 L 36.53125 -26.390625 L 30.796875 0 Z M 13.25 0 "/></g></g></g><g fill="#5962ad" fill-opacity="1"><g transform="translate(1199.808091, 144.765665)"><g><path d="M 3.21875 0 L 3.21875 -14.546875 L 24.40625 -14.546875 L 24.40625 -44.203125 C 24.40625 -47.285156 24.039062 -49.789062 23.3125 -51.71875 C 22.582031 -53.644531 21.109375 -54.84375 18.890625 -55.3125 C 18.390625 -55.414062 17.820312 -55.492188 17.1875 -55.546875 C 16.5625 -55.609375 16.109375 -55.640625 15.828125 -55.640625 C 12.816406 -55.640625 10.5 -55.578125 8.875 -55.453125 C 7.25 -55.328125 5.363281 -55.046875 3.21875 -54.609375 L 3.21875 -69.265625 C 5.507812 -69.617188 7.742188 -69.875 9.921875 -70.03125 C 12.109375 -70.195312 14.398438 -70.28125 16.796875 -70.28125 C 21.046875 -70.28125 24.492188 -70.046875 27.140625 -69.578125 C 29.785156 -69.117188 32.003906 -68.476562 33.796875 -67.65625 C 36.085938 -66.65625 37.796875 -65.492188 38.921875 -64.171875 C 40.046875 -62.847656 41.003906 -61.363281 41.796875 -59.71875 C 42.117188 -59.070312 42.34375 -57.800781 42.46875 -55.90625 C 42.59375 -54.007812 42.671875 -51.96875 42.703125 -49.78125 C 42.742188 -47.601562 42.765625 -45.726562 42.765625 -44.15625 L 42.765625 -14.546875 L 51.015625 -14.546875 L 51.015625 0 Z M 3.21875 0 "/></g></g></g><g fill="#5962ad" fill-opacity="1"><g transform="translate(1262.405952, 144.765665)"><g><path d="M 4.875 -22.3125 L 4.875 -69.203125 L 23.0625 -69.203125 L 23.0625 -39.546875 L 12.453125 -22.3125 Z M 4.875 -22.3125 "/></g></g></g><g fill="#5962ad" fill-opacity="1"><g transform="translate(1301.344831, 144.765665)"><g><path d="M 28.65625 1.234375 C 26.21875 1.234375 23.90625 0.960938 21.71875 0.421875 C 19.539062 -0.109375 17.613281 -0.984375 15.9375 -2.203125 C 14.320312 -3.378906 12.832031 -4.804688 11.46875 -6.484375 C 10.113281 -8.171875 8.957031 -10.226562 8 -12.65625 C 6.882812 -15.488281 6.039062 -18.828125 5.46875 -22.671875 C 4.894531 -26.515625 4.609375 -30.941406 4.609375 -35.953125 L 4.609375 -69.046875 L 23.171875 -69.046875 L 23.171875 -34.71875 C 23.171875 -30.382812 23.3125 -26.867188 23.59375 -24.171875 C 23.882812 -21.472656 24.335938 -19.242188 24.953125 -17.484375 C 25.554688 -15.804688 26.273438 -14.722656 27.109375 -14.234375 C 27.953125 -13.753906 28.769531 -13.515625 29.5625 -13.515625 C 30.632812 -13.515625 31.5625 -13.851562 32.34375 -14.53125 C 33.132812 -15.21875 33.800781 -16.273438 34.34375 -17.703125 C 34.90625 -19.203125 35.335938 -21.257812 35.640625 -23.875 C 35.953125 -26.488281 36.109375 -30.082031 36.109375 -34.65625 C 36.109375 -38.414062 35.984375 -41.75 35.734375 -44.65625 C 35.484375 -47.570312 35.019531 -49.890625 34.34375 -51.609375 C 33.769531 -53.078125 33.078125 -54.113281 32.265625 -54.71875 C 31.460938 -55.332031 30.648438 -55.640625 29.828125 -55.640625 C 29.472656 -55.640625 29.085938 -55.628906 28.671875 -55.609375 C 28.265625 -55.585938 27.5625 -55.503906 26.5625 -55.359375 L 26.5625 -69.75 C 27.382812 -69.925781 28.410156 -70.054688 29.640625 -70.140625 C 30.878906 -70.234375 31.835938 -70.28125 32.515625 -70.28125 C 34.984375 -70.28125 37.40625 -69.75 39.78125 -68.6875 C 42.15625 -67.632812 44.289062 -65.945312 46.1875 -63.625 C 47.507812 -62.019531 48.78125 -59.972656 50 -57.484375 C 51.21875 -54.992188 52.1875 -52.320312 52.90625 -49.46875 C 53.507812 -47.144531 53.953125 -44.640625 54.234375 -41.953125 C 54.523438 -39.273438 54.671875 -36.703125 54.671875 -34.234375 C 54.671875 -30.191406 54.3125 -26.328125 53.59375 -22.640625 C 52.875 -18.953125 51.976562 -15.910156 50.90625 -13.515625 C 49.875 -11.191406 48.585938 -9.171875 47.046875 -7.453125 C 45.515625 -5.734375 44.066406 -4.359375 42.703125 -3.328125 C 40.347656 -1.578125 37.9375 -0.378906 35.46875 0.265625 C 33 0.910156 30.726562 1.234375 28.65625 1.234375 Z M 28.65625 1.234375 "/></g></g></g><g fill="#5962ad" fill-opacity="1"><g transform="translate(1371.185239, 144.765665)"><g><path d="M 28.8125 1.078125 C 25.84375 1.078125 23.070312 0.628906 20.5 -0.265625 C 17.382812 -1.335938 14.742188 -3.019531 12.578125 -5.3125 C 10.410156 -7.601562 8.648438 -10.300781 7.296875 -13.40625 C 5.929688 -16.59375 4.945312 -20.109375 4.34375 -23.953125 C 3.738281 -27.796875 3.4375 -31.796875 3.4375 -35.953125 C 3.4375 -38.597656 3.847656 -41.179688 4.671875 -43.703125 C 5.492188 -46.222656 6.507812 -48.421875 7.71875 -50.296875 C 8.9375 -52.171875 10.117188 -53.46875 11.265625 -54.1875 L 11.15625 -54.71875 L 3.921875 -54.125 L 3.921875 -68.453125 C 5.742188 -68.847656 7.742188 -69.179688 9.921875 -69.453125 C 12.109375 -69.722656 14.863281 -69.925781 18.1875 -70.0625 C 21.507812 -70.207031 25.75 -70.28125 30.90625 -70.28125 C 33.15625 -70.28125 35.296875 -69.832031 37.328125 -68.9375 C 39.367188 -68.039062 41.179688 -66.863281 42.765625 -65.40625 C 44.015625 -64.257812 45.316406 -62.738281 46.671875 -60.84375 C 48.035156 -58.945312 49.21875 -56.742188 50.21875 -54.234375 C 51.21875 -51.804688 52.007812 -48.9375 52.59375 -45.625 C 53.1875 -42.320312 53.484375 -38.648438 53.484375 -34.609375 C 53.484375 -31.140625 53.222656 -27.785156 52.703125 -24.546875 C 52.191406 -21.304688 51.414062 -18.3125 50.375 -15.5625 C 49.269531 -12.625 47.875 -10.007812 46.1875 -7.71875 C 44.507812 -5.4375 42.523438 -3.5625 40.234375 -2.09375 C 36.910156 0.0195312 33.101562 1.078125 28.8125 1.078125 Z M 28.28125 -13.515625 C 29.382812 -13.515625 30.328125 -13.835938 31.109375 -14.484375 C 31.898438 -15.128906 32.582031 -16.203125 33.15625 -17.703125 C 33.65625 -19.066406 34.039062 -20.640625 34.3125 -22.421875 C 34.582031 -24.210938 34.757812 -26.117188 34.84375 -28.140625 C 34.9375 -30.160156 34.984375 -32.171875 34.984375 -34.171875 C 34.984375 -38.066406 34.835938 -41.507812 34.546875 -44.5 C 34.265625 -47.488281 33.785156 -49.84375 33.109375 -51.5625 C 32.640625 -52.8125 32.046875 -53.8125 31.328125 -54.5625 C 30.617188 -55.3125 30.007812 -55.6875 29.5 -55.6875 C 28.613281 -55.6875 27.875 -55.640625 27.28125 -55.546875 C 26.6875 -55.460938 26.015625 -55.3125 25.265625 -55.09375 C 23.984375 -52.695312 23.125 -49.929688 22.6875 -46.796875 C 22.257812 -43.671875 22.046875 -39.875 22.046875 -35.40625 C 22.046875 -30.96875 22.195312 -27.253906 22.5 -24.265625 C 22.8125 -21.285156 23.195312 -19.0625 23.65625 -17.59375 C 24.082031 -16.195312 24.660156 -15.164062 25.390625 -14.5 C 26.128906 -13.84375 27.09375 -13.515625 28.28125 -13.515625 Z M 28.28125 -13.515625 "/></g></g></g><g fill="#5962ad" fill-opacity="1"><g transform="translate(1439.094301, 144.765665)"><g><path d="M 27.140625 1.078125 C 25.640625 1.078125 23.804688 0.992188 21.640625 0.828125 C 19.484375 0.671875 17.460938 0.492188 15.578125 0.296875 C 13.703125 0.0976562 12.425781 -0.0703125 11.75 -0.21875 L 9.703125 -0.640625 L 9.703125 -15.71875 C 13.929688 -15 17.535156 -14.453125 20.515625 -14.078125 C 23.503906 -13.703125 26.46875 -13.515625 29.40625 -13.515625 C 30.15625 -13.515625 30.90625 -13.976562 31.65625 -14.90625 C 32.40625 -15.84375 33.015625 -17.113281 33.484375 -18.71875 C 33.734375 -19.539062 33.921875 -20.40625 34.046875 -21.3125 C 34.171875 -22.226562 34.25 -23.191406 34.28125 -24.203125 C 34.320312 -25.628906 34.347656 -27.226562 34.359375 -29 C 34.378906 -30.769531 34.390625 -32.390625 34.390625 -33.859375 C 34.390625 -36.609375 34.34375 -38.992188 34.25 -41.015625 C 34.164062 -43.035156 34.015625 -44.78125 33.796875 -46.25 C 33.648438 -47.394531 33.476562 -48.40625 33.28125 -49.28125 C 33.09375 -50.15625 32.851562 -50.929688 32.5625 -51.609375 C 31.882812 -53.328125 31.132812 -54.4375 30.3125 -54.9375 C 29.488281 -55.4375 28.664062 -55.6875 27.84375 -55.6875 C 26.875 -55.6875 26.050781 -55.515625 25.375 -55.171875 C 24.695312 -54.835938 24.144531 -54.363281 23.71875 -53.75 C 23.144531 -52.925781 22.75 -51.890625 22.53125 -50.640625 C 22.320312 -49.390625 22.21875 -48.03125 22.21875 -46.5625 C 22.21875 -46.3125 22.257812 -45.691406 22.34375 -44.703125 C 22.4375 -43.722656 22.550781 -42.953125 22.6875 -42.390625 C 22.9375 -41.492188 23.507812 -40.523438 24.40625 -39.484375 C 25.300781 -38.453125 26.535156 -37.773438 28.109375 -37.453125 L 30.6875 -36.90625 L 27.140625 -22.53125 L 23.234375 -23.015625 C 21.796875 -23.191406 20.09375 -23.617188 18.125 -24.296875 C 16.164062 -24.984375 14.613281 -25.613281 13.46875 -26.1875 C 12.675781 -26.570312 11.816406 -27.085938 10.890625 -27.734375 C 9.960938 -28.378906 9.175781 -29.039062 8.53125 -29.71875 C 7.28125 -31.039062 6.117188 -33.085938 5.046875 -35.859375 C 3.972656 -38.628906 3.4375 -41.945312 3.4375 -45.8125 C 3.4375 -49.71875 4.101562 -53.285156 5.4375 -56.515625 C 6.78125 -59.753906 8.8125 -62.5 11.53125 -64.75 C 13.851562 -66.644531 16.410156 -68.039062 19.203125 -68.9375 C 21.992188 -69.832031 24.75 -70.28125 27.46875 -70.28125 C 30.65625 -70.28125 33.425781 -69.785156 35.78125 -68.796875 C 38.144531 -67.816406 40.039062 -66.753906 41.46875 -65.609375 C 42.789062 -64.578125 44.222656 -63.113281 45.765625 -61.21875 C 47.304688 -59.320312 48.59375 -57.101562 49.625 -54.5625 C 50.550781 -52.34375 51.335938 -49.503906 51.984375 -46.046875 C 52.628906 -42.597656 52.953125 -38.765625 52.953125 -34.546875 C 52.953125 -30.648438 52.65625 -27.03125 52.0625 -23.6875 C 51.476562 -20.34375 50.703125 -17.453125 49.734375 -15.015625 C 48.734375 -12.515625 47.523438 -10.304688 46.109375 -8.390625 C 44.703125 -6.484375 43.300781 -4.9375 41.90625 -3.75 C 40.644531 -2.675781 38.863281 -1.601562 36.5625 -0.53125 C 34.257812 0.539062 31.117188 1.078125 27.140625 1.078125 Z M 27.140625 1.078125 "/></g></g></g><g fill="#5962ad" fill-opacity="1"><g transform="translate(456.667062, 624.222309)"><g><path d="M 4.890625 0 L 4.890625 -68.734375 C 5.179688 -68.878906 5.890625 -69.03125 7.015625 -69.1875 C 8.148438 -69.351562 9.539062 -69.507812 11.1875 -69.65625 C 13.40625 -69.875 15.945312 -70.0625 18.8125 -70.21875 C 21.6875 -70.382812 24.488281 -70.46875 27.21875 -70.46875 C 31.195312 -70.46875 34.378906 -70.285156 36.765625 -69.921875 C 39.148438 -69.566406 41.128906 -69.046875 42.703125 -68.359375 C 45.328125 -67.253906 47.503906 -65.632812 49.234375 -63.5 C 50.972656 -61.363281 52.113281 -58.878906 52.65625 -56.046875 C 52.945312 -54.609375 53.171875 -52.929688 53.328125 -51.015625 C 53.492188 -49.097656 53.578125 -46.757812 53.578125 -44 L 53.578125 0 Z M 23.234375 -14.578125 L 35.28125 -14.578125 L 35.28125 -44.046875 C 35.28125 -45.191406 35.207031 -46.445312 35.0625 -47.8125 C 34.925781 -49.175781 34.675781 -50.328125 34.3125 -51.265625 C 33.957031 -52.191406 33.472656 -52.953125 32.859375 -53.546875 C 32.253906 -54.140625 31.59375 -54.613281 30.875 -54.96875 C 30.195312 -55.332031 29.515625 -55.554688 28.828125 -55.640625 C 28.148438 -55.734375 27.539062 -55.78125 27 -55.78125 C 25.5625 -55.78125 24.664062 -55.78125 24.3125 -55.78125 C 23.957031 -55.78125 23.597656 -55.757812 23.234375 -55.71875 Z M 23.234375 -14.578125 "/></g></g></g><g fill="#5962ad" fill-opacity="1"><g transform="translate(525.872775, 624.222309)"><g><path d="M 4.890625 0 L 4.890625 -69.390625 L 23.1875 -69.390625 L 23.1875 0 Z M 4.890625 0 "/></g></g></g><g fill="#5962ad" fill-opacity="1"><g transform="translate(564.961716, 624.222309)"><g><path d="M 23.296875 0 L 23.296875 -42.109375 C 23.296875 -43.835938 23.585938 -45.515625 24.171875 -47.140625 C 24.765625 -48.773438 25.457031 -49.988281 26.25 -50.78125 C 27.070312 -51.632812 27.945312 -52.398438 28.875 -53.078125 C 29.8125 -53.765625 30.78125 -54.34375 31.78125 -54.8125 L 1.453125 -54.8125 L 1.453125 -69.390625 L 48.25 -69.390625 L 48.25 -55.453125 C 47.851562 -55.304688 47.367188 -55.0625 46.796875 -54.71875 C 46.222656 -54.382812 45.628906 -53.859375 45.015625 -53.140625 C 42.722656 -50.453125 41.578125 -46.582031 41.578125 -41.53125 L 41.578125 0 Z M 23.296875 0 "/></g></g></g><g fill="#5962ad" fill-opacity="1"><g transform="translate(625.186184, 624.222309)"><g><path d="M 4.625 0 L 4.625 -25.015625 C 4.625 -26.734375 4.675781 -28.09375 4.78125 -29.09375 C 4.894531 -30.101562 5.09375 -31.035156 5.375 -31.890625 C 5.664062 -32.753906 6.078125 -33.832031 6.609375 -35.125 C 7.398438 -37.019531 8.691406 -38.625 10.484375 -39.9375 C 12.273438 -41.25 14.285156 -42.351562 16.515625 -43.25 L 2.6875 -69.390625 L 23.875 -69.390625 L 38.078125 -38.828125 C 38.328125 -39.046875 38.5625 -39.378906 38.78125 -39.828125 C 39 -40.273438 39.195312 -40.75 39.375 -41.25 C 39.550781 -41.789062 39.679688 -42.335938 39.765625 -42.890625 C 39.859375 -43.453125 39.90625 -43.960938 39.90625 -44.421875 L 39.90625 -69.390625 L 58.203125 -69.390625 L 58.203125 -44.703125 C 58.203125 -41.296875 57.84375 -38.414062 57.125 -36.0625 C 56.40625 -33.71875 55.398438 -31.914062 54.109375 -30.65625 C 53.359375 -29.90625 52.113281 -28.988281 50.375 -27.90625 C 48.632812 -26.832031 46.707031 -25.992188 44.59375 -25.390625 L 57.171875 0 L 35.875 0 L 23.390625 -29.265625 C 23.359375 -29.015625 23.304688 -28.726562 23.234375 -28.40625 C 23.160156 -28.082031 23.085938 -27.738281 23.015625 -27.375 C 22.910156 -26.695312 22.859375 -25.976562 22.859375 -25.21875 L 22.859375 0 Z M 4.625 0 "/></g></g></g><g fill="#5962ad" fill-opacity="1"><g transform="translate(697.080895, 624.222309)"><g><path d="M 35.28125 0 L 35.28125 -44.328125 C 35.28125 -47.085938 34.992188 -49.390625 34.421875 -51.234375 C 33.847656 -53.078125 32.804688 -54.359375 31.296875 -55.078125 C 30.796875 -55.328125 30.132812 -55.503906 29.3125 -55.609375 C 28.488281 -55.722656 27.414062 -55.78125 26.09375 -55.78125 C 23.144531 -55.78125 20.144531 -55.597656 17.09375 -55.234375 C 14.050781 -54.878906 9.984375 -54.234375 4.890625 -53.296875 L 4.890625 -67.609375 C 5.898438 -68.003906 7.289062 -68.363281 9.0625 -68.6875 C 10.832031 -69.007812 12.972656 -69.347656 15.484375 -69.703125 C 17.921875 -70.066406 20.097656 -70.285156 22.015625 -70.359375 C 23.941406 -70.429688 25.816406 -70.46875 27.640625 -70.46875 C 32.234375 -70.46875 35.6875 -70.273438 38 -69.890625 C 40.3125 -69.515625 42.3125 -68.914062 44 -68.09375 C 44.820312 -67.738281 45.5625 -67.351562 46.21875 -66.9375 C 46.882812 -66.519531 47.503906 -66.082031 48.078125 -65.625 C 50.847656 -63.394531 52.457031 -60.585938 52.90625 -57.203125 C 53.351562 -53.816406 53.578125 -49.503906 53.578125 -44.265625 L 53.578125 0 Z M 4.890625 0 L 4.890625 -44.53125 L 23.234375 -44.53125 L 23.234375 0 Z M 4.890625 0 "/></g></g></g><g fill="#5962ad" fill-opacity="1"><g transform="translate(766.286621, 624.222309)"><g/></g></g><g fill="#5962ad" fill-opacity="1"><g transform="translate(796.66321, 624.222309)"><g><path d="M 4.890625 0 L 4.890625 -68.734375 C 5.179688 -68.878906 5.890625 -69.03125 7.015625 -69.1875 C 8.148438 -69.351562 9.539062 -69.507812 11.1875 -69.65625 C 13.40625 -69.875 15.945312 -70.0625 18.8125 -70.21875 C 21.6875 -70.382812 24.488281 -70.46875 27.21875 -70.46875 C 31.195312 -70.46875 34.378906 -70.285156 36.765625 -69.921875 C 39.148438 -69.566406 41.128906 -69.046875 42.703125 -68.359375 C 45.328125 -67.253906 47.503906 -65.632812 49.234375 -63.5 C 50.972656 -61.363281 52.113281 -58.878906 52.65625 -56.046875 C 52.945312 -54.609375 53.171875 -52.929688 53.328125 -51.015625 C 53.492188 -49.097656 53.578125 -46.757812 53.578125 -44 L 53.578125 0 Z M 23.234375 -14.578125 L 35.28125 -14.578125 L 35.28125 -44.046875 C 35.28125 -45.191406 35.207031 -46.445312 35.0625 -47.8125 C 34.925781 -49.175781 34.675781 -50.328125 34.3125 -51.265625 C 33.957031 -52.191406 33.472656 -52.953125 32.859375 -53.546875 C 32.253906 -54.140625 31.59375 -54.613281 30.875 -54.96875 C 30.195312 -55.332031 29.515625 -55.554688 28.828125 -55.640625 C 28.148438 -55.734375 27.539062 -55.78125 27 -55.78125 C 25.5625 -55.78125 24.664062 -55.78125 24.3125 -55.78125 C 23.957031 -55.78125 23.597656 -55.757812 23.234375 -55.71875 Z M 23.234375 -14.578125 "/></g></g></g><g fill="#5962ad" fill-opacity="1"><g transform="translate(865.868913, 624.222309)"><g><path d="M 4.890625 -22.375 L 4.890625 -69.390625 L 23.125 -69.390625 L 23.125 -39.640625 L 12.484375 -22.375 Z M 4.890625 -22.375 "/></g></g></g><g fill="#5962ad" fill-opacity="1"><g transform="translate(904.904069, 624.222309)"><g><path d="M 3.234375 0 L 3.234375 -14.578125 L 24.46875 -14.578125 L 24.46875 -44.328125 C 24.46875 -47.410156 24.097656 -49.914062 23.359375 -51.84375 C 22.628906 -53.78125 21.15625 -54.984375 18.9375 -55.453125 C 18.4375 -55.554688 17.867188 -55.632812 17.234375 -55.6875 C 16.609375 -55.75 16.15625 -55.78125 15.875 -55.78125 C 12.851562 -55.78125 10.523438 -55.71875 8.890625 -55.59375 C 7.265625 -55.46875 5.378906 -55.1875 3.234375 -54.75 L 3.234375 -69.4375 C 5.523438 -69.800781 7.765625 -70.0625 9.953125 -70.21875 C 12.140625 -70.382812 14.429688 -70.46875 16.828125 -70.46875 C 21.097656 -70.46875 24.5625 -70.234375 27.21875 -69.765625 C 29.875 -69.296875 32.097656 -68.648438 33.890625 -67.828125 C 36.179688 -66.816406 37.890625 -65.648438 39.015625 -64.328125 C 40.148438 -63.003906 41.113281 -61.515625 41.90625 -59.859375 C 42.226562 -59.210938 42.453125 -57.941406 42.578125 -56.046875 C 42.703125 -54.148438 42.78125 -52.109375 42.8125 -49.921875 C 42.851562 -47.734375 42.875 -45.847656 42.875 -44.265625 L 42.875 -14.578125 L 51.15625 -14.578125 L 51.15625 0 Z M 3.234375 0 "/></g></g></g><g fill="#5962ad" fill-opacity="1"><g transform="translate(967.656177, 624.222309)"><g/></g></g><g fill="#5962ad" fill-opacity="1"><g transform="translate(998.032767, 624.222309)"><g><path d="M 4.890625 -22.375 L 4.890625 -69.390625 L 23.125 -69.390625 L 23.125 -39.640625 L 12.484375 -22.375 Z M 4.890625 -22.375 "/></g></g></g><g fill="#5962ad" fill-opacity="1"><g transform="translate(1037.067923, 624.222309)"><g><path d="M 3.390625 0 L 6.71875 -41.140625 C 6.789062 -41.859375 6.84375 -42.738281 6.875 -43.78125 C 6.914062 -44.820312 6.9375 -45.878906 6.9375 -46.953125 C 6.9375 -49.035156 6.835938 -51.050781 6.640625 -53 C 6.441406 -54.957031 6.164062 -56.816406 5.8125 -58.578125 C 5.738281 -58.929688 5.65625 -59.285156 5.5625 -59.640625 C 5.476562 -60.003906 5.390625 -60.351562 5.296875 -60.6875 C 5.203125 -61.03125 5.101562 -61.363281 5 -61.6875 C 4.644531 -62.976562 4.269531 -64.257812 3.875 -65.53125 C 3.476562 -66.8125 3.082031 -68.097656 2.6875 -69.390625 L 19.84375 -69.390625 C 20.601562 -67.410156 21.207031 -65.601562 21.65625 -63.96875 C 22.101562 -62.34375 22.488281 -60.597656 22.8125 -58.734375 L 23.71875 -58.734375 C 24.039062 -59.773438 24.757812 -61.082031 25.875 -62.65625 C 26.988281 -64.238281 28.097656 -65.492188 29.203125 -66.421875 C 30.421875 -67.429688 32.132812 -68.359375 34.34375 -69.203125 C 36.550781 -70.046875 39 -70.46875 41.6875 -70.46875 C 44.40625 -70.46875 46.707031 -70.015625 48.59375 -69.109375 C 50.476562 -68.210938 52.015625 -67.140625 53.203125 -65.890625 C 54.671875 -64.347656 55.90625 -62.375 56.90625 -59.96875 C 57.90625 -57.570312 58.640625 -54.972656 59.109375 -52.171875 C 59.503906 -49.910156 59.800781 -47.410156 60 -44.671875 C 60.195312 -41.929688 60.296875 -39.410156 60.296875 -37.109375 L 60.296875 0 L 28.71875 0 L 28.71875 -14.578125 L 42.015625 -14.578125 L 42.015625 -37 C 42.015625 -39.507812 41.859375 -41.832031 41.546875 -43.96875 C 41.242188 -46.101562 40.785156 -48.03125 40.171875 -49.75 C 39.816406 -50.789062 39.394531 -51.722656 38.90625 -52.546875 C 38.425781 -53.367188 37.835938 -54.015625 37.140625 -54.484375 C 36.441406 -54.953125 35.570312 -55.1875 34.53125 -55.1875 C 33.238281 -55.1875 32.082031 -54.828125 31.0625 -54.109375 C 30.039062 -53.390625 29.171875 -52.472656 28.453125 -51.359375 C 27.734375 -50.253906 27.113281 -49.109375 26.59375 -47.921875 C 26.070312 -46.742188 25.632812 -45.523438 25.28125 -44.265625 L 21.625 0 Z M 3.390625 0 "/></g></g></g><g fill="#5962ad" fill-opacity="1"><g transform="translate(1112.996136, 624.222309)"><g><path d="M 4.890625 0 L 4.890625 -69.390625 L 23.1875 -69.390625 L 23.1875 0 Z M 4.890625 0 "/></g></g></g><g fill="#5962ad" fill-opacity="1"><g transform="translate(1152.085066, 624.222309)"><g><path d="M 4.625 0 L 4.625 -25.015625 C 4.625 -26.734375 4.675781 -28.09375 4.78125 -29.09375 C 4.894531 -30.101562 5.09375 -31.035156 5.375 -31.890625 C 5.664062 -32.753906 6.078125 -33.832031 6.609375 -35.125 C 7.398438 -37.019531 8.691406 -38.625 10.484375 -39.9375 C 12.273438 -41.25 14.285156 -42.351562 16.515625 -43.25 L 2.6875 -69.390625 L 23.875 -69.390625 L 38.078125 -38.828125 C 38.328125 -39.046875 38.5625 -39.378906 38.78125 -39.828125 C 39 -40.273438 39.195312 -40.75 39.375 -41.25 C 39.550781 -41.789062 39.679688 -42.335938 39.765625 -42.890625 C 39.859375 -43.453125 39.90625 -43.960938 39.90625 -44.421875 L 39.90625 -69.390625 L 58.203125 -69.390625 L 58.203125 -44.703125 C 58.203125 -41.296875 57.84375 -38.414062 57.125 -36.0625 C 56.40625 -33.71875 55.398438 -31.914062 54.109375 -30.65625 C 53.359375 -29.90625 52.113281 -28.988281 50.375 -27.90625 C 48.632812 -26.832031 46.707031 -25.992188 44.59375 -25.390625 L 57.171875 0 L 35.875 0 L 23.390625 -29.265625 C 23.359375 -29.015625 23.304688 -28.726562 23.234375 -28.40625 C 23.160156 -28.082031 23.085938 -27.738281 23.015625 -27.375 C 22.910156 -26.695312 22.859375 -25.976562 22.859375 -25.21875 L 22.859375 0 Z M 4.625 0 "/></g></g></g><g fill="#5962ad" fill-opacity="1"><g transform="translate(1223.979754, 624.222309)"><g><path d="M 13.28125 0 L 19.046875 -26.78125 L 27.375 -54.8125 L 1.5 -54.8125 L 1.5 -83.375 L 19.734375 -83.375 L 19.734375 -69.21875 L 45.875 -69.21875 L 45.875 -57.921875 L 36.625 -26.46875 L 30.875 0 Z M 13.28125 0 "/></g></g></g><g fill="#5962ad" fill-opacity="1"><g transform="translate(1281.891679, 624.222309)"><g><path d="M 1.78125 0 L 1.78125 -14.578125 L 17.53125 -14.578125 C 17.820312 -15.578125 18.019531 -17.070312 18.125 -19.0625 C 18.226562 -21.050781 18.28125 -23.554688 18.28125 -26.578125 L 18.28125 -47.703125 C 18.28125 -48.890625 18.109375 -50.171875 17.765625 -51.546875 C 17.429688 -52.929688 16.867188 -53.894531 16.078125 -54.4375 C 15.578125 -54.789062 14.914062 -55.03125 14.09375 -55.15625 C 13.269531 -55.28125 12.550781 -55.34375 11.9375 -55.34375 C 11.21875 -55.34375 10.273438 -55.253906 9.109375 -55.078125 C 7.953125 -54.898438 6.617188 -54.613281 5.109375 -54.21875 L 5.109375 -69.21875 C 7.585938 -69.726562 9.578125 -70.0625 11.078125 -70.21875 C 12.585938 -70.382812 14.039062 -70.46875 15.4375 -70.46875 C 17.769531 -70.46875 20.070312 -70.296875 22.34375 -69.953125 C 24.625 -69.609375 26.425781 -69.1875 27.75 -68.6875 C 29.863281 -67.894531 31.640625 -66.519531 33.078125 -64.5625 C 34.515625 -62.613281 35.46875 -60.273438 35.9375 -57.546875 C 36.113281 -56.578125 36.253906 -55.238281 36.359375 -53.53125 C 36.460938 -51.832031 36.515625 -49.890625 36.515625 -47.703125 L 36.515625 -20.4375 C 36.515625 -17.96875 36.398438 -15.554688 36.171875 -13.203125 C 35.941406 -10.859375 35.65625 -8.722656 35.3125 -6.796875 C 34.96875 -4.878906 34.617188 -3.347656 34.265625 -2.203125 L 33.5625 0 Z M 1.78125 0 "/></g></g></g><g fill="#5962ad" fill-opacity="1"><g transform="translate(1333.726474, 624.222309)"><g><path d="M 4.890625 -22.375 L 4.890625 -69.390625 L 23.125 -69.390625 L 23.125 -39.640625 L 12.484375 -22.375 Z M 4.890625 -22.375 "/></g></g></g><g fill="#5962ad" fill-opacity="1"><g transform="translate(1372.76163, 624.222309)"><g><path d="M 3.234375 0 L 3.234375 -14.578125 L 24.46875 -14.578125 L 24.46875 -44.328125 C 24.46875 -47.410156 24.097656 -49.914062 23.359375 -51.84375 C 22.628906 -53.78125 21.15625 -54.984375 18.9375 -55.453125 C 18.4375 -55.554688 17.867188 -55.632812 17.234375 -55.6875 C 16.609375 -55.75 16.15625 -55.78125 15.875 -55.78125 C 12.851562 -55.78125 10.523438 -55.71875 8.890625 -55.59375 C 7.265625 -55.46875 5.378906 -55.1875 3.234375 -54.75 L 3.234375 -69.4375 C 5.523438 -69.800781 7.765625 -70.0625 9.953125 -70.21875 C 12.140625 -70.382812 14.429688 -70.46875 16.828125 -70.46875 C 21.097656 -70.46875 24.5625 -70.234375 27.21875 -69.765625 C 29.875 -69.296875 32.097656 -68.648438 33.890625 -67.828125 C 36.179688 -66.816406 37.890625 -65.648438 39.015625 -64.328125 C 40.148438 -63.003906 41.113281 -61.515625 41.90625 -59.859375 C 42.226562 -59.210938 42.453125 -57.941406 42.578125 -56.046875 C 42.703125 -54.148438 42.78125 -52.109375 42.8125 -49.921875 C 42.851562 -47.734375 42.875 -45.847656 42.875 -44.265625 L 42.875 -14.578125 L 51.15625 -14.578125 L 51.15625 0 Z M 3.234375 0 "/></g></g></g><g fill="#5962ad" fill-opacity="1"><g transform="translate(1435.513784, 624.222309)"><g><path d="M 35.28125 0 L 35.28125 -44.328125 C 35.28125 -47.085938 34.992188 -49.390625 34.421875 -51.234375 C 33.847656 -53.078125 32.804688 -54.359375 31.296875 -55.078125 C 30.796875 -55.328125 30.132812 -55.503906 29.3125 -55.609375 C 28.488281 -55.722656 27.414062 -55.78125 26.09375 -55.78125 C 23.144531 -55.78125 20.144531 -55.597656 17.09375 -55.234375 C 14.050781 -54.878906 9.984375 -54.234375 4.890625 -53.296875 L 4.890625 -67.609375 C 5.898438 -68.003906 7.289062 -68.363281 9.0625 -68.6875 C 10.832031 -69.007812 12.972656 -69.347656 15.484375 -69.703125 C 17.921875 -70.066406 20.097656 -70.285156 22.015625 -70.359375 C 23.941406 -70.429688 25.816406 -70.46875 27.640625 -70.46875 C 32.234375 -70.46875 35.6875 -70.273438 38 -69.890625 C 40.3125 -69.515625 42.3125 -68.914062 44 -68.09375 C 44.820312 -67.738281 45.5625 -67.351562 46.21875 -66.9375 C 46.882812 -66.519531 47.503906 -66.082031 48.078125 -65.625 C 50.847656 -63.394531 52.457031 -60.585938 52.90625 -57.203125 C 53.351562 -53.816406 53.578125 -49.503906 53.578125 -44.265625 L 53.578125 0 Z M 4.890625 0 L 4.890625 -44.53125 L 23.234375 -44.53125 L 23.234375 0 Z M 4.890625 0 "/></g></g></g></svg>